<svg width="48" height="49" viewBox="0 0 48 49" fill="none" xmlns="http://www.w3.org/2000/svg">
<path d="M16.6571 9.17969C16.4171 15.4617 16.5941 16.5897 17.3751 18.1897C19.1221 21.7707 21.6011 22.0177 21.6011 22.0177C21.6011 22.0177 19.8471 18.7907 19.6771 17.4377C19.6771 17.4377 22.4971 22.0067 25.5441 21.7807C25.5441 21.7807 24.1621 20.8217 23.8521 18.2267C23.5421 15.6317 23.9651 14.6167 23.9651 14.6167" stroke="#030211" stroke-opacity="0.7" stroke-width="1.4" stroke-linecap="round" stroke-linejoin="round"/>
<path d="M16.518 14.673C16.518 14.673 14.441 18.478 15.411 21.491C15.411 21.491 13.313 20.274 13.2 19.145C13.2 19.145 13.146 21.612 12.75 22.119M23.231 11.458C23.231 11.458 24.303 16.761 27.406 18.453C27.406 18.453 26.39 14.673 26.559 13.15C26.559 13.15 27.746 17.001 32.934 17.832C32.934 17.832 34.308 21.088 31.414 26.21C31.414 26.21 33.82 25.496 34.453 24.03M38.289 20.526C38.289 20.526 39.872 24.602 38.462 28.043C38.462 28.043 40.323 26.785 40.887 22.103M34.231 24.714C34.231 24.714 34.513 28.438 32.426 30.638C32.426 30.638 36.996 29.228 38.349 19.807M42.298 19.807C42.298 19.807 41.113 20.032 37.841 18.171C37.841 18.171 34.908 17.095 33.554 16.418C33.554 16.418 28.471 15.628 30.442 13.767C30.442 13.767 32.708 12.925 34.739 14.504C34.739 14.504 35.924 15.407 38.913 14.448" stroke="#030211" stroke-opacity="0.7" stroke-width="1.4" stroke-linecap="round" stroke-linejoin="round"/>
<path d="M31.6931 6.09863C31.6931 6.09863 36.6001 12.0786 37.2211 14.6166M37.5031 8.46763C37.5031 8.46763 36.7701 7.00163 36.0361 6.43763M12.1181 12.9806C12.1181 12.9806 9.86215 24.8836 16.9131 26.6886C16.9131 26.6886 13.8671 29.4526 10.9901 24.4316M8.05715 20.4266C8.05715 20.4266 7.60515 30.5246 11.1031 31.3146C11.1031 31.3146 10.2571 30.6936 10.0871 27.0266" stroke="#030211" stroke-opacity="0.7" stroke-width="1.4" stroke-linecap="round" stroke-linejoin="round"/>
<path d="M13.4162 27.5346C13.4162 27.5346 13.9042 30.0456 15.4832 31.6246C15.4832 31.6246 11.7892 31.3706 10.3232 28.4936M14.4872 24.6576C14.4872 24.6576 15.8412 22.0066 19.5642 22.7956M25.7702 20.1446C25.7702 20.1446 29.1542 15.6886 32.2572 20.4836M31.4102 19.1296L32.3702 18.5096M29.8882 18.0016L30.1132 17.2676M26.1652 19.1296L25.7702 18.6216M15.5462 22.9556L14.7092 22.4806M14.5442 24.1496L13.7542 24.0936M23.1752 24.2626L23.2312 25.3346M21.4262 28.6626C21.4262 28.6626 23.9082 26.9136 27.0672 27.4226C27.0672 27.4226 27.0712 30.2626 25.0502 30.8296C23.1202 31.3726 22.2722 30.1856 21.4262 28.6626Z" stroke="#030211" stroke-opacity="0.7" stroke-width="1.4" stroke-linecap="round" stroke-linejoin="round"/>
<path d="M26.2203 20.145C26.2203 20.145 26.6973 22.681 27.8873 23.424C28.4063 23.748 29.5903 24.017 30.3143 23.313C30.8313 22.809 31.7333 20.967 31.7893 20.516M14.9393 27.873C14.9393 27.873 17.1623 31.791 19.2823 32.781C21.4593 33.798 24.4573 34.714 25.2623 34.643C26.7813 34.508 26.2383 35.155 30.5643 30.863C30.5643 30.863 32.0713 29.433 32.9343 26.858L33.1163 25.689M37.6793 8.62099L38.5623 8.52299M11.2773 6.16699C11.2773 6.16699 8.03827 8.12999 7.35027 14.608C7.35027 14.608 6.76127 15.884 5.78027 17.062M5.78027 19.614C5.78027 19.614 7.35127 19.614 8.52927 17.454M21.7903 34.001C21.7903 34.001 22.1623 35.341 22.2373 35.861M29.6773 31.918C29.6773 31.918 29.8273 34.671 29.9753 35.043M16.3593 30.504C16.3593 30.504 17.9963 35.414 17.6993 37.87H15.4663C15.4663 37.87 15.5413 32.439 15.5413 30.504M6.91027 19.418C6.91027 19.418 6.31427 21.5 5.79327 21.576M7.95127 24.998C7.95127 24.998 7.13327 26.412 5.94227 27.008M8.39827 28.022C8.39827 28.022 7.43027 32.439 5.79327 32.811M9.14227 33.332C9.14227 33.332 5.71427 37.147 8.24327 42.579C8.24327 42.579 8.47227 41.219 10.0343 39.433C11.5973 37.647 12.1183 36.68 12.4903 36.01C12.4903 36.01 11.5803 40 12.5483 41.489" stroke="#030211" stroke-opacity="0.7" stroke-width="1.4" stroke-linecap="round" stroke-linejoin="round"/>
<path d="M5.49609 34.968C5.49609 34.968 7.50509 35.564 8.91809 33.703M13.6861 31.365C13.6861 31.365 12.1181 32.662 11.6711 33.778L13.6171 35.255C13.6171 35.255 14.6421 33.135 15.0141 31.87M40.9121 27.082C40.9121 27.082 41.2101 28.272 42.4001 29.388M34.7371 30.207C34.7371 30.207 35.5551 33.703 37.1921 33.555M21.3621 38.207C21.3621 38.207 21.6011 37.409 21.1221 36.053C21.1221 36.053 28.7781 36.453 31.0901 34.618C31.0901 34.618 31.0101 36.133 31.4901 36.851C31.4901 36.851 27.9001 39.642 21.3621 38.207Z" stroke="#030211" stroke-opacity="0.7" stroke-width="1.4" stroke-linecap="round" stroke-linejoin="round"/>
<path d="M42.0954 29.9126C42.0954 29.9126 39.7034 29.0356 38.4274 32.3046C38.4274 32.3046 36.0354 35.3346 35.3174 35.4146" stroke="#030211" stroke-opacity="0.7" stroke-width="1.4" stroke-linecap="round" stroke-linejoin="round"/>
<path d="M29.3361 42.9108C29.3361 42.9108 33.0041 38.4458 33.4831 36.1328C33.9611 33.8198 35.3171 33.5808 36.3531 34.3788M20.9631 38.4458C20.9631 38.4458 18.4911 40.3598 13.7861 41.6358" stroke="#030211" stroke-opacity="0.7" stroke-width="1.4" stroke-linecap="round" stroke-linejoin="round"/>
<path d="M31.6491 36.3721C31.6491 36.3721 32.7651 36.7711 33.2441 36.6921M34.3601 42.8321C34.3601 42.8321 34.9981 39.4021 34.7591 37.8871M9.08008 42.6721C9.08008 42.6721 12.1111 42.0341 13.0681 41.3961C14.0251 40.7581 13.5471 42.1941 14.7431 42.6721" stroke="#030211" stroke-opacity="0.7" stroke-width="1.4" stroke-linecap="round" stroke-linejoin="round"/>
<path d="M27.7939 20.215L27.8739 20.769M38.5039 6H9.50391C8.44304 6 7.42562 6.42143 6.67548 7.17157C5.92533 7.92172 5.50391 8.93913 5.50391 10V39C5.50391 40.0609 5.92533 41.0783 6.67548 41.8284C7.42562 42.5786 8.44304 43 9.50391 43H38.5039C39.5648 43 40.5822 42.5786 41.3323 41.8284C42.0825 41.0783 42.5039 40.0609 42.5039 39V10C42.5039 8.93913 42.0825 7.92172 41.3323 7.17157C40.5822 6.42143 39.5648 6 38.5039 6Z" stroke="#030211" stroke-opacity="0.7" stroke-width="1.4" stroke-linecap="round" stroke-linejoin="round"/>
</svg>
