<svg width="48" height="49" viewBox="0 0 48 49" fill="none" xmlns="http://www.w3.org/2000/svg">
<path d="M20 6.5C20.4899 6.50006 20.9627 6.67991 21.3287 7.00543C21.6948 7.33095 21.9287 7.7795 21.986 8.266L22 8.5V40.5C21.9999 40.9899 21.8201 41.4627 21.4946 41.8287C21.1691 42.1948 20.7205 42.4287 20.234 42.486L20 42.5H12C9.94752 42.5 7.97354 41.7111 6.48638 40.2966C4.99921 38.882 4.11262 36.9499 4.01 34.9L4 34.5V14.5C4 12.4475 4.78887 10.4735 6.20345 8.98638C7.61802 7.49921 9.55008 6.61262 11.6 6.51L12 6.5H20ZM18 10.5H12C10.9908 10.4997 10.0189 10.8808 9.2789 11.567C8.53894 12.2532 8.08569 13.1937 8.01 14.2L8 14.5V34.5C7.99968 35.5092 8.38081 36.4811 9.06699 37.2211C9.75317 37.9611 10.6937 38.4143 11.7 38.49L12 38.5H18V10.5ZM13 14.5C13.7956 14.5 14.5587 14.8161 15.1213 15.3787C15.6839 15.9413 16 16.7044 16 17.5C16 18.2956 15.6839 19.0587 15.1213 19.6213C14.5587 20.1839 13.7956 20.5 13 20.5C12.2044 20.5 11.4413 20.1839 10.8787 19.6213C10.3161 19.0587 10 18.2956 10 17.5C10 16.7044 10.3161 15.9413 10.8787 15.3787C11.4413 14.8161 12.2044 14.5 13 14.5ZM36 6.5C38.0525 6.5 40.0265 7.28887 41.5136 8.70345C43.0008 10.118 43.8874 12.0501 43.99 14.1L44 14.5V34.5C44 36.5525 43.2111 38.5265 41.7966 40.0136C40.382 41.5008 38.4499 42.3874 36.4 42.49L36 42.5H28C27.5101 42.4999 27.0373 42.3201 26.6713 41.9946C26.3052 41.669 26.0713 41.2205 26.014 40.734L26 40.5V8.5C26.0001 8.01013 26.1799 7.53733 26.5054 7.17126C26.8309 6.80519 27.2795 6.57131 27.766 6.514L28 6.5H36ZM36 10.5H30V38.5H36C37.0092 38.5003 37.9811 38.1192 38.7211 37.433C39.4611 36.7468 39.9143 35.8063 39.99 34.8L40 34.5V14.5C40.0003 13.4908 39.6192 12.5189 38.933 11.7789C38.2468 11.0389 37.3063 10.5857 36.3 10.51L36 10.5ZM35 28.5C35.7956 28.5 36.5587 28.8161 37.1213 29.3787C37.6839 29.9413 38 30.7044 38 31.5C38 32.2956 37.6839 33.0587 37.1213 33.6213C36.5587 34.1839 35.7956 34.5 35 34.5C34.2044 34.5 33.4413 34.1839 32.8787 33.6213C32.3161 33.0587 32 32.2956 32 31.5C32 30.7044 32.3161 29.9413 32.8787 29.3787C33.4413 28.8161 34.2044 28.5 35 28.5Z" fill="#030211" fill-opacity="0.7"/>
</svg>
