<svg width="786" height="801" viewBox="0 0 786 801" fill="none" xmlns="http://www.w3.org/2000/svg">
<path d="M786 68.5295L2.86342 68.5294M786 200.952L2.86342 200.952M786 134.741L2.86342 134.741M786 267.163L2.86342 267.163M786 333.374L2.86342 333.374M786 399.585L2.86342 399.585M783.137 598.219L0 598.219M786 465.797L2.86342 465.797M783.137 664.43L0 664.43M786 532.008L2.86342 532.008M783.137 730.641L0 730.641M69.6833 0L69.6832 797.83M200.099 0L200.099 797.83M134.891 0L134.891 797.83M265.306 0L265.306 797.83M330.514 0L330.514 797.83M395.722 0L395.722 797.83M591.345 2.91713L591.345 800.747M460.93 0L460.93 797.83M656.553 2.91713V800.747M526.137 0L526.137 797.83M721.76 2.91713V800.747" stroke="url(#paint0_radial_2062_6149)" stroke-width="0.954344"/>
<defs>
<radialGradient id="paint0_radial_2062_6149" cx="0" cy="0" r="1" gradientUnits="userSpaceOnUse" gradientTransform="translate(393 400.373) rotate(90) scale(400.373 393)">
<stop stop-color="#666666"/>
<stop offset="1" stop-color="#18181A" stop-opacity="0"/>
</radialGradient>
</defs>
</svg>
