<svg width="48" height="49" viewBox="0 0 48 49" fill="none" xmlns="http://www.w3.org/2000/svg">
<path d="M24 4.5C12.954 4.5 4 13.454 4 24.5C4 35.546 12.954 44.5 24 44.5C35.046 44.5 44 35.546 44 24.5C44 13.454 35.046 4.5 24 4.5ZM20.148 7.94C22.6822 7.35045 25.3178 7.35045 27.852 7.94L24.004 10.246L20.148 7.94ZM16.488 9.246L22.504 12.846V17.232L16.922 21.288L12.834 19.874L11.66 12.806C13.0456 11.3425 14.6804 10.1371 16.488 9.246ZM9.18 16.17L9.896 20.484L7.04 23.34C7.20864 20.8201 7.93989 18.3701 9.18 16.17ZM7.244 27.378L11.898 22.724L15.978 24.134L18.14 30.8L16.2 33.95L9.614 33.562C8.42554 31.6761 7.62158 29.5749 7.244 27.378ZM12.182 36.718L15.99 36.942L17.34 40.146C15.4246 39.329 13.6775 38.1671 12.182 36.718ZM21.058 41.246L18.69 35.628L20.616 32.494H27.36L29.184 35.656L27.104 41.216C25.1062 41.5829 23.0593 41.5931 21.058 41.246ZM30.718 40.12L31.852 37.086L35.192 37.296C33.8566 38.4652 32.3463 39.4181 30.716 40.12M37.78 34.452L31.732 34.072L29.856 30.824L32.03 24.134L36.056 22.742L40.68 27.782C40.2058 30.1885 39.2165 32.4639 37.78 34.452ZM40.976 23.67L38.096 20.53L38.82 16.174C40.1133 18.4704 40.8517 21.0374 40.976 23.67ZM36.34 12.81L35.162 19.878L31.082 21.288L25.5 17.232V12.844L31.504 9.244C33.3151 10.1367 34.9527 11.3429 36.34 12.81ZM18.93 23.536L24 19.852L29.07 23.536L27.134 29.496H20.866L18.93 23.536Z" fill="#030211" fill-opacity="0.7"/>
</svg>
