<svg width="1440" height="70" viewBox="0 0 1440 70" fill="none" xmlns="http://www.w3.org/2000/svg">
<path d="M11.264 53H4.32V5.8H18.528C22.1547 5.8 25.1947 6.48267 27.648 7.848C30.1227 9.21333 31.9787 11.0587 33.216 13.384C34.4747 15.688 35.104 18.2693 35.104 21.128C35.104 23.9867 34.464 26.6213 33.184 29.032C31.9253 31.4213 30.0587 33.3413 27.584 34.792C25.1093 36.2427 22.0907 36.968 18.528 36.968H11.264V53ZM11.264 34.6L8.128 31.208H17.728C19.9893 31.208 21.888 30.8027 23.424 29.992C24.9813 29.16 26.1547 27.9867 26.944 26.472C27.7333 24.9573 28.128 23.176 28.128 21.128C28.128 19.08 27.744 17.3413 26.976 15.912C26.208 14.4827 25.056 13.4053 23.52 12.68C21.984 11.9333 20.0533 11.56 17.728 11.56H8.128L11.264 7.912V34.6ZM42.294 53V19.016H49.238V29.864L47.382 29.032C47.5313 27.6453 47.8833 26.3227 48.438 25.064C48.9927 23.8053 49.7287 22.6853 50.646 21.704C51.5847 20.7013 52.7367 19.912 54.102 19.336C55.4673 18.76 57.046 18.472 58.838 18.472C60.2033 18.472 61.302 18.5787 62.134 18.792C62.9873 19.0053 63.51 19.176 63.702 19.304L62.23 25.832C62.0167 25.6827 61.5793 25.4907 60.918 25.256C60.278 25.0213 59.382 24.904 58.23 24.904C56.4807 24.904 55.03 25.2133 53.878 25.832C52.726 26.4507 51.8087 27.272 51.126 28.296C50.4433 29.32 49.9527 30.44 49.654 31.656C49.3767 32.8507 49.238 34.056 49.238 35.272V53H42.294ZM85.085 53.64C81.5863 53.64 78.493 52.8827 75.805 51.368C73.1383 49.8533 71.0477 47.7733 69.533 45.128C68.0397 42.4613 67.293 39.4107 67.293 35.976C67.293 32.5627 68.0397 29.544 69.533 26.92C71.0477 24.2747 73.1383 22.216 75.805 20.744C78.493 19.2507 81.5863 18.504 85.085 18.504C88.5837 18.504 91.6663 19.2507 94.333 20.744C97.021 22.216 99.1117 24.2747 100.605 26.92C102.12 29.544 102.877 32.5627 102.877 35.976C102.877 39.4107 102.12 42.4613 100.605 45.128C99.1117 47.7733 97.021 49.8533 94.333 51.368C91.6663 52.8827 88.5837 53.64 85.085 53.64ZM85.085 47.688C87.2183 47.688 89.0957 47.208 90.717 46.248C92.3383 45.288 93.6077 43.9333 94.525 42.184C95.4423 40.4133 95.901 38.344 95.901 35.976C95.901 33.6293 95.4423 31.592 94.525 29.864C93.6077 28.136 92.3383 26.8027 90.717 25.864C89.0957 24.9253 87.2183 24.456 85.085 24.456C82.973 24.456 81.0957 24.9253 79.453 25.864C77.8317 26.8027 76.5623 28.136 75.645 29.864C74.7277 31.592 74.269 33.6293 74.269 35.976C74.269 38.344 74.7277 40.4133 75.645 42.184C76.5623 43.9333 77.8317 45.288 79.453 46.248C81.0957 47.208 82.973 47.688 85.085 47.688ZM124.687 53.672C121.892 53.672 119.321 53 116.975 51.656C114.628 50.2907 112.751 48.2853 111.343 45.64C109.935 42.9947 109.231 39.7627 109.231 35.944C109.231 32.2107 109.945 29.0427 111.375 26.44C112.804 23.8373 114.692 21.864 117.039 20.52C119.385 19.1547 121.935 18.472 124.687 18.472C127.332 18.472 129.785 19.112 132.047 20.392C134.329 21.672 136.164 23.4533 137.551 25.736C138.937 27.9973 139.631 30.6107 139.631 33.576C139.631 33.6613 139.631 33.7467 139.631 33.832C139.631 33.896 139.631 33.96 139.631 34.024L135.599 34.152C135.599 34.088 135.599 34.024 135.599 33.96C135.599 33.8747 135.599 33.8 135.599 33.736C135.599 31.9653 135.151 30.3973 134.255 29.032C133.359 27.6453 132.175 26.5573 130.703 25.768C129.252 24.9573 127.705 24.552 126.062 24.552C123.311 24.552 121.007 25.48 119.151 27.336C117.295 29.1707 116.367 32.04 116.367 35.944C116.367 39.8267 117.295 42.7067 119.151 44.584C121.028 46.44 123.332 47.368 126.062 47.368C127.769 47.368 129.348 46.9627 130.799 46.152C132.249 45.32 133.412 44.1893 134.287 42.76C135.161 41.3307 135.599 39.6987 135.599 37.864L139.631 38.024C139.631 40.968 138.959 43.624 137.615 45.992C136.292 48.36 134.5 50.2373 132.239 51.624C129.999 52.9893 127.481 53.672 124.687 53.672ZM135.599 53V2.984H142.575V53H135.599ZM163.866 53.608C161.455 53.608 159.45 53.2027 157.85 52.392C156.25 51.56 154.98 50.4827 154.042 49.16C153.103 47.816 152.442 46.3547 152.058 44.776C151.674 43.176 151.482 41.6187 151.482 40.104C151.482 39.3147 151.482 38.4933 151.482 37.64C151.482 36.7653 151.482 35.8907 151.482 35.016V19.016H158.458V34.024C158.458 34.792 158.458 35.5493 158.458 36.296C158.458 37.0213 158.458 37.704 158.458 38.344C158.458 39.9867 158.671 41.5013 159.098 42.888C159.524 44.2533 160.271 45.3627 161.338 46.216C162.426 47.048 163.94 47.464 165.882 47.464C167.695 47.464 169.274 46.9307 170.618 45.864C171.962 44.776 173.007 43.4107 173.754 41.768C174.5 40.104 174.874 38.44 174.874 36.776L177.914 38.408C177.914 40.3707 177.583 42.2587 176.922 44.072C176.282 45.8853 175.354 47.5173 174.138 48.968C172.922 50.3973 171.439 51.528 169.69 52.36C167.962 53.192 166.02 53.608 163.866 53.608ZM174.874 53V19.016H181.818V53H174.874ZM207.087 53.672C203.673 53.672 200.612 52.9573 197.903 51.528C195.215 50.0773 193.092 48.0187 191.535 45.352C189.999 42.6853 189.231 39.5493 189.231 35.944C189.231 32.3387 189.999 29.2347 191.535 26.632C193.092 24.008 195.215 21.992 197.903 20.584C200.612 19.176 203.673 18.472 207.087 18.472C209.668 18.472 211.961 18.8667 213.967 19.656C215.972 20.424 217.668 21.448 219.055 22.728C220.441 24.008 221.497 25.416 222.222 26.952C222.948 28.488 223.311 30.024 223.311 31.56C223.311 31.5813 223.311 31.6133 223.311 31.656C223.311 31.6987 223.311 31.7413 223.311 31.784H216.431C216.431 31.6773 216.42 31.56 216.399 31.432C216.377 31.2827 216.356 31.144 216.335 31.016C216.164 29.7573 215.673 28.6373 214.863 27.656C214.052 26.6747 212.985 25.896 211.663 25.32C210.34 24.744 208.793 24.456 207.023 24.456C205.081 24.456 203.289 24.8827 201.647 25.736C200.025 26.568 198.724 27.8373 197.743 29.544C196.761 31.2507 196.271 33.384 196.271 35.944C196.271 38.504 196.751 40.6587 197.711 42.408C198.692 44.136 199.993 45.448 201.615 46.344C203.257 47.24 205.06 47.688 207.023 47.688C209.135 47.688 210.863 47.368 212.207 46.728C213.551 46.0667 214.564 45.192 215.247 44.104C215.929 42.9947 216.324 41.8 216.431 40.52H223.311C223.311 42.056 222.959 43.6133 222.255 45.192C221.551 46.7493 220.516 48.168 219.151 49.448C217.785 50.728 216.089 51.752 214.063 52.52C212.057 53.288 209.732 53.672 207.087 53.672ZM244.947 53.576C243.816 53.576 242.686 53.4587 241.555 53.224C240.446 52.9893 239.422 52.5627 238.483 51.944C237.566 51.304 236.83 50.3973 236.275 49.224C235.72 48.0507 235.443 46.5147 235.443 44.616C235.443 44.168 235.443 43.6987 235.443 43.208C235.443 42.7173 235.443 42.216 235.443 41.704V24.776H227.283V19.016H231.571C232.488 19.016 233.203 18.984 233.715 18.92C234.248 18.8347 234.632 18.6533 234.867 18.376C235.123 18.0773 235.283 17.608 235.347 16.968C235.411 16.328 235.443 15.4533 235.443 14.344V7.784H242.387V19.016H252.787V24.776H242.387V39.848C242.387 40.2747 242.387 40.7013 242.387 41.128C242.387 41.5547 242.387 41.9493 242.387 42.312C242.387 44.0187 242.59 45.3627 242.995 46.344C243.422 47.3253 244.382 47.816 245.875 47.816C246.515 47.816 247.123 47.7627 247.699 47.656C248.275 47.5493 248.712 47.432 249.011 47.304V52.968C248.627 53.1173 248.083 53.256 247.379 53.384C246.675 53.512 245.864 53.576 244.947 53.576ZM275.195 53V5.8H288.155C291.291 5.8 294.128 6.35467 296.667 7.464C299.206 8.57333 301.371 10.152 303.163 12.2C304.976 14.248 306.374 16.7227 307.355 19.624C308.336 22.5253 308.827 25.768 308.827 29.352C308.827 32.9573 308.336 36.2107 307.355 39.112C306.374 42.0133 304.976 44.4987 303.163 46.568C301.371 48.6373 299.206 50.2267 296.667 51.336C294.128 52.4453 291.291 53 288.155 53H275.195ZM282.171 50.888L279.035 47.24H287.323C290.096 47.24 292.571 46.5147 294.747 45.064C296.944 43.6133 298.662 41.5547 299.899 38.888C301.136 36.2 301.755 33.0213 301.755 29.352C301.755 25.6613 301.136 22.4933 299.899 19.848C298.662 17.1813 296.944 15.1333 294.747 13.704C292.571 12.2747 290.096 11.56 287.323 11.56H279.035L282.171 7.912V50.888ZM318.883 38.44V33.032H343.907L342.947 34.632C342.947 34.504 342.947 34.376 342.947 34.248C342.947 34.0987 342.947 33.9707 342.947 33.864C342.947 32.136 342.574 30.5467 341.827 29.096C341.08 27.624 339.96 26.4507 338.467 25.576C336.995 24.68 335.15 24.232 332.931 24.232C330.712 24.232 328.76 24.712 327.075 25.672C325.411 26.6107 324.11 27.9547 323.171 29.704C322.254 31.432 321.795 33.512 321.795 35.944C321.795 38.4187 322.243 40.552 323.139 42.344C324.035 44.1147 325.326 45.48 327.011 46.44C328.696 47.4 330.712 47.88 333.059 47.88C334.702 47.88 336.12 47.72 337.315 47.4C338.531 47.0587 339.523 46.6107 340.291 46.056C341.08 45.5013 341.678 44.904 342.083 44.264C342.488 43.6027 342.723 42.952 342.787 42.312H349.699C349.571 43.6987 349.112 45.0747 348.323 46.44C347.555 47.784 346.456 49.0107 345.027 50.12C343.619 51.208 341.891 52.0827 339.843 52.744C337.816 53.384 335.48 53.704 332.835 53.704C329.294 53.704 326.19 52.9573 323.523 51.464C320.856 49.9707 318.776 47.9013 317.283 45.256C315.79 42.5893 315.043 39.5387 315.043 36.104C315.043 32.6053 315.8 29.5333 317.315 26.888C318.83 24.2427 320.931 22.184 323.619 20.712C326.307 19.2187 329.39 18.472 332.867 18.472C336.408 18.472 339.47 19.2187 342.051 20.712C344.654 22.2053 346.659 24.264 348.067 26.888C349.475 29.512 350.179 32.5307 350.179 35.944C350.179 36.3493 350.168 36.8187 350.147 37.352C350.126 37.8853 350.094 38.248 350.051 38.44H318.883ZM371.295 53.672C369.268 53.672 367.359 53.448 365.567 53C363.775 52.552 362.196 51.9013 360.831 51.048C359.487 50.1733 358.431 49.096 357.663 47.816C356.916 46.536 356.543 45.0533 356.543 43.368C356.543 43.2187 356.543 43.0693 356.543 42.92C356.543 42.7493 356.543 42.6107 356.543 42.504H363.455C363.455 42.6107 363.455 42.7067 363.455 42.792C363.455 42.8773 363.455 42.9947 363.455 43.144C363.455 44.7013 364.17 45.8853 365.599 46.696C367.05 47.4853 369.012 47.88 371.487 47.88C372.938 47.88 374.26 47.7307 375.455 47.432C376.671 47.1333 377.631 46.6747 378.335 46.056C379.06 45.4373 379.423 44.648 379.423 43.688C379.423 42.1307 378.655 41.0213 377.119 40.36C375.604 39.6987 373.3 39.112 370.207 38.6C368.522 38.3013 366.89 37.9173 365.311 37.448C363.754 36.9787 362.346 36.36 361.087 35.592C359.85 34.8027 358.858 33.832 358.111 32.68C357.386 31.5067 357.023 30.0987 357.023 28.456C357.023 26.3227 357.663 24.5093 358.943 23.016C360.223 21.5227 361.951 20.392 364.127 19.624C366.303 18.856 368.703 18.472 371.327 18.472C373.866 18.472 376.212 18.888 378.367 19.72C380.543 20.5307 382.292 21.7147 383.615 23.272C384.938 24.808 385.599 26.696 385.599 28.936C385.599 29.0213 385.599 29.1173 385.599 29.224C385.599 29.3307 385.599 29.4267 385.599 29.512H378.719C378.719 29.4267 378.719 29.352 378.719 29.288C378.719 29.224 378.719 29.1493 378.719 29.064C378.719 27.9547 378.367 27.048 377.663 26.344C376.959 25.64 376.042 25.1173 374.911 24.776C373.802 24.4133 372.618 24.232 371.359 24.232C370.207 24.232 369.044 24.36 367.871 24.616C366.719 24.8507 365.759 25.2667 364.991 25.864C364.223 26.44 363.839 27.2293 363.839 28.232C363.839 29.256 364.212 30.0773 364.959 30.696C365.706 31.2933 366.762 31.7947 368.127 32.2C369.492 32.584 371.082 32.936 372.895 33.256C374.559 33.5547 376.18 33.9387 377.759 34.408C379.338 34.856 380.756 35.4533 382.015 36.2C383.295 36.9467 384.308 37.9067 385.055 39.08C385.823 40.2533 386.207 41.6933 386.207 43.4C386.207 45.1707 385.802 46.696 384.991 47.976C384.18 49.256 383.071 50.3227 381.663 51.176C380.276 52.008 378.687 52.6267 376.895 53.032C375.124 53.4587 373.258 53.672 371.295 53.672ZM393.953 53V19.016H400.801V53H393.953ZM397.409 11.976C396.214 11.976 395.179 11.656 394.305 11.016C393.451 10.3547 393.025 9.448 393.025 8.296C393.025 7.16533 393.451 6.28 394.305 5.64C395.179 4.97867 396.214 4.648 397.409 4.648C398.582 4.648 399.595 4.97867 400.449 5.64C401.323 6.28 401.761 7.16533 401.761 8.296C401.761 9.448 401.323 10.3547 400.449 11.016C399.595 11.656 398.582 11.976 397.409 11.976ZM432.348 50.28C434.268 50.4507 435.953 50.8133 437.404 51.368C438.855 51.9013 439.985 52.6907 440.796 53.736C441.628 54.8027 442.044 56.2 442.044 57.928C442.044 59.8693 441.383 61.5547 440.06 62.984C438.759 64.4347 436.807 65.5547 434.204 66.344C431.601 67.1547 428.369 67.56 424.508 67.56C418.983 67.56 414.769 66.76 411.868 65.16C408.967 63.56 407.516 61.384 407.516 58.632C407.516 57.8 407.612 57.064 407.804 56.424C407.996 55.784 408.231 55.2507 408.508 54.824L414.972 55.784C414.823 55.9973 414.673 56.3067 414.524 56.712C414.375 57.1387 414.3 57.6507 414.3 58.248C414.3 59.7627 415.228 60.84 417.084 61.48C418.94 62.12 421.511 62.44 424.796 62.44C427.207 62.44 429.201 62.2693 430.78 61.928C432.38 61.608 433.575 61.1387 434.364 60.52C435.153 59.9013 435.548 59.176 435.548 58.344C435.548 57.0853 435.004 56.296 433.916 55.976C432.828 55.656 431.516 55.432 429.98 55.304L417.084 54.248C414.844 54.056 413.009 53.384 411.58 52.232C410.172 51.08 409.468 49.6293 409.468 47.88C409.468 46.792 409.745 45.7787 410.3 44.84C410.855 43.9013 411.495 43.112 412.22 42.472C412.967 41.832 413.607 41.4373 414.14 41.288L418.684 43.464C418.193 43.528 417.596 43.8587 416.892 44.456C416.209 45.032 415.868 45.7147 415.868 46.504C415.868 47.2293 416.167 47.8267 416.764 48.296C417.383 48.7653 418.577 49.0747 420.348 49.224L432.348 50.28ZM436.604 19.016H442.908L440.316 32.296C439.847 34.7707 438.983 37.0107 437.724 39.016C436.487 41 434.801 42.568 432.668 43.72C430.556 44.872 427.921 45.448 424.764 45.448C421.479 45.448 418.652 44.8827 416.284 43.752C413.916 42.6213 412.092 41.0533 410.812 39.048C409.553 37.0213 408.924 34.7173 408.924 32.136C408.924 29.512 409.575 27.1653 410.876 25.096C412.199 23.0267 414.012 21.4053 416.316 20.232C418.641 19.0587 421.297 18.472 424.284 18.472C426.801 18.472 429.031 18.8987 430.972 19.752C432.935 20.6053 434.492 21.6933 435.644 23.016C436.796 24.3387 437.425 25.7147 437.532 27.144L435.548 27.368L436.604 19.016ZM424.732 39.784C426.588 39.784 428.188 39.4853 429.532 38.888C430.876 38.2693 431.911 37.384 432.636 36.232C433.361 35.0587 433.724 33.6507 433.724 32.008C433.724 30.3867 433.361 29 432.636 27.848C431.911 26.6747 430.876 25.7787 429.532 25.16C428.188 24.52 426.599 24.2 424.764 24.2C422.993 24.2 421.425 24.5307 420.06 25.192C418.716 25.832 417.66 26.7387 416.892 27.912C416.124 29.0853 415.74 30.4827 415.74 32.104C415.74 33.7253 416.103 35.112 416.828 36.264C417.553 37.3947 418.588 38.2693 419.932 38.888C421.276 39.4853 422.876 39.784 424.732 39.784ZM473.674 53V37.32C473.674 36.4027 473.674 35.624 473.674 34.984C473.674 34.344 473.674 33.7467 473.674 33.192C473.674 31.528 473.418 30.0667 472.906 28.808C472.394 27.528 471.551 26.536 470.378 25.832C469.204 25.1067 467.636 24.744 465.674 24.744C463.946 24.744 462.378 25.1707 460.97 26.024C459.583 26.8773 458.474 28.04 457.642 29.512C456.831 30.9627 456.426 32.616 456.426 34.472L453.45 33C453.45 30.248 454.1 27.784 455.402 25.608C456.703 23.4107 458.442 21.672 460.618 20.392C462.815 19.112 465.215 18.472 467.818 18.472C470.506 18.472 472.799 18.9947 474.698 20.04C476.618 21.064 478.079 22.536 479.082 24.456C480.106 26.3547 480.618 28.6267 480.618 31.272C480.618 32.2533 480.618 33.3413 480.618 34.536C480.618 35.7307 480.618 36.8827 480.618 37.992V53H473.674ZM449.482 53V19.016H456.426V53H449.482ZM491.821 38.44V33.032H516.845L515.885 34.632C515.885 34.504 515.885 34.376 515.885 34.248C515.885 34.0987 515.885 33.9707 515.885 33.864C515.885 32.136 515.511 30.5467 514.765 29.096C514.018 27.624 512.898 26.4507 511.405 25.576C509.933 24.68 508.087 24.232 505.869 24.232C503.65 24.232 501.698 24.712 500.013 25.672C498.349 26.6107 497.047 27.9547 496.109 29.704C495.191 31.432 494.733 33.512 494.733 35.944C494.733 38.4187 495.181 40.552 496.077 42.344C496.973 44.1147 498.263 45.48 499.949 46.44C501.634 47.4 503.65 47.88 505.997 47.88C507.639 47.88 509.058 47.72 510.253 47.4C511.469 47.0587 512.461 46.6107 513.229 46.056C514.018 45.5013 514.615 44.904 515.021 44.264C515.426 43.6027 515.661 42.952 515.725 42.312H522.637C522.509 43.6987 522.05 45.0747 521.261 46.44C520.493 47.784 519.394 49.0107 517.965 50.12C516.557 51.208 514.829 52.0827 512.781 52.744C510.754 53.384 508.418 53.704 505.773 53.704C502.231 53.704 499.127 52.9573 496.461 51.464C493.794 49.9707 491.714 47.9013 490.221 45.256C488.727 42.5893 487.981 39.5387 487.981 36.104C487.981 32.6053 488.738 29.5333 490.253 26.888C491.767 24.2427 493.869 22.184 496.557 20.712C499.245 19.2187 502.327 18.472 505.805 18.472C509.346 18.472 512.407 19.2187 514.989 20.712C517.591 22.2053 519.597 24.264 521.005 26.888C522.413 29.512 523.117 32.5307 523.117 35.944C523.117 36.3493 523.106 36.8187 523.085 37.352C523.063 37.8853 523.031 38.248 522.989 38.44H491.821ZM530.857 53V19.016H537.801V29.864L535.945 29.032C536.094 27.6453 536.446 26.3227 537.001 25.064C537.555 23.8053 538.291 22.6853 539.209 21.704C540.147 20.7013 541.299 19.912 542.665 19.336C544.03 18.76 545.609 18.472 547.401 18.472C548.766 18.472 549.865 18.5787 550.697 18.792C551.55 19.0053 552.073 19.176 552.265 19.304L550.793 25.832C550.579 25.6827 550.142 25.4907 549.481 25.256C548.841 25.0213 547.945 24.904 546.793 24.904C545.043 24.904 543.593 25.2133 542.441 25.832C541.289 26.4507 540.371 27.272 539.689 28.296C539.006 29.32 538.515 30.44 538.217 31.656C537.939 32.8507 537.801 34.056 537.801 35.272V53H530.857Z" fill="white"/>
<path d="M587.875 33.75C588.372 33.75 588.849 33.5525 589.201 33.2008C589.552 32.8492 589.75 32.3723 589.75 31.875C589.75 31.3777 589.552 30.9008 589.201 30.5492C588.849 30.1975 588.372 30 587.875 30C587.378 30 586.901 30.1975 586.549 30.5492C586.198 30.9008 586 31.3777 586 31.875C586 32.3723 586.198 32.8492 586.549 33.2008C586.901 33.5525 587.378 33.75 587.875 33.75ZM581 31.875C581 32.3723 580.802 32.8492 580.451 33.2008C580.099 33.5525 579.622 33.75 579.125 33.75C578.628 33.75 578.151 33.5525 577.799 33.2008C577.448 32.8492 577.25 32.3723 577.25 31.875C577.25 31.3777 577.448 30.9008 577.799 30.5492C578.151 30.1975 578.628 30 579.125 30C579.622 30 580.099 30.1975 580.451 30.5492C580.802 30.9008 581 31.3777 581 31.875ZM576.41 38.9125C576.615 38.773 576.867 38.7204 577.11 38.766C577.354 38.8117 577.57 38.952 577.71 39.1562L577.721 39.1712L577.776 39.245C577.829 39.3125 577.914 39.415 578.03 39.5425C578.264 39.7963 578.62 40.1425 579.103 40.4888C580.062 41.18 581.515 41.875 583.5 41.875C585.485 41.875 586.938 41.18 587.897 40.4888C588.38 40.1425 588.737 39.7963 588.97 39.5425C589.079 39.4238 589.183 39.2999 589.28 39.1712L589.289 39.1587C589.429 38.9532 589.645 38.8117 589.889 38.7654C590.134 38.7191 590.386 38.7718 590.592 38.9119C590.797 39.0519 590.939 39.2679 590.985 39.5123C591.031 39.7567 590.979 40.0095 590.839 40.215L590.836 40.2163V40.2188L590.832 40.2225L590.824 40.235L590.796 40.2738L590.701 40.3988C590.59 40.54 590.473 40.6772 590.351 40.81C589.941 41.256 589.486 41.6581 588.992 42.01C587.78 42.8837 585.952 43.75 583.5 43.75C581.047 43.75 579.22 42.8825 578.007 42.0112C577.514 41.6587 577.058 41.2557 576.647 40.8088C576.481 40.6258 576.325 40.4347 576.178 40.2362L576.167 40.2238L576.165 40.2188L576.164 40.2163L576.163 40.215C576.023 40.0095 575.97 39.7568 576.016 39.5125C576.063 39.2682 576.204 39.0524 576.41 38.9125ZM583.5 20C575.216 20 568.5 26.7163 568.5 35C568.5 43.2838 575.216 50 583.5 50C591.784 50 598.5 43.2838 598.5 35C598.5 26.7163 591.784 20 583.5 20ZM570.375 35C570.375 27.7513 576.251 21.875 583.5 21.875C590.749 21.875 596.625 27.7513 596.625 35C596.625 42.2487 590.749 48.125 583.5 48.125C576.251 48.125 570.375 42.2487 570.375 35Z" fill="white"/>
<path d="M650.6 5.8H662.472V53H655.88V10.664L656.072 10.728L644.968 53H635.432L624.232 10.696L624.424 10.6V53H617.8V5.8H629.672L640.264 48.52H639.944L650.6 5.8ZM688.273 53.64C684.774 53.64 681.681 52.8827 678.993 51.368C676.326 49.8533 674.235 47.7733 672.721 45.128C671.227 42.4613 670.481 39.4107 670.481 35.976C670.481 32.5627 671.227 29.544 672.721 26.92C674.235 24.2747 676.326 22.216 678.993 20.744C681.681 19.2507 684.774 18.504 688.273 18.504C691.771 18.504 694.854 19.2507 697.521 20.744C700.209 22.216 702.299 24.2747 703.793 26.92C705.307 29.544 706.065 32.5627 706.065 35.976C706.065 39.4107 705.307 42.4613 703.793 45.128C702.299 47.7733 700.209 49.8533 697.521 51.368C694.854 52.8827 691.771 53.64 688.273 53.64ZM688.273 47.688C690.406 47.688 692.283 47.208 693.905 46.248C695.526 45.288 696.795 43.9333 697.713 42.184C698.63 40.4133 699.089 38.344 699.089 35.976C699.089 33.6293 698.63 31.592 697.713 29.864C696.795 28.136 695.526 26.8027 693.905 25.864C692.283 24.9253 690.406 24.456 688.273 24.456C686.161 24.456 684.283 24.9253 682.641 25.864C681.019 26.8027 679.75 28.136 678.833 29.864C677.915 31.592 677.457 33.6293 677.457 35.976C677.457 38.344 677.915 40.4133 678.833 42.184C679.75 43.9333 681.019 45.288 682.641 46.248C684.283 47.208 686.161 47.688 688.273 47.688ZM727.76 53.576C726.629 53.576 725.498 53.4587 724.368 53.224C723.258 52.9893 722.234 52.5627 721.296 51.944C720.378 51.304 719.642 50.3973 719.088 49.224C718.533 48.0507 718.256 46.5147 718.256 44.616C718.256 44.168 718.256 43.6987 718.256 43.208C718.256 42.7173 718.256 42.216 718.256 41.704V24.776H710.096V19.016H714.384C715.301 19.016 716.016 18.984 716.528 18.92C717.061 18.8347 717.445 18.6533 717.68 18.376C717.936 18.0773 718.096 17.608 718.16 16.968C718.224 16.328 718.256 15.4533 718.256 14.344V7.784H725.2V19.016H735.6V24.776H725.2V39.848C725.2 40.2747 725.2 40.7013 725.2 41.128C725.2 41.5547 725.2 41.9493 725.2 42.312C725.2 44.0187 725.402 45.3627 725.808 46.344C726.234 47.3253 727.194 47.816 728.688 47.816C729.328 47.816 729.936 47.7627 730.512 47.656C731.088 47.5493 731.525 47.432 731.824 47.304V52.968C731.44 53.1173 730.896 53.256 730.192 53.384C729.488 53.512 728.677 53.576 727.76 53.576ZM742.328 53V19.016H749.176V53H742.328ZM745.784 11.976C744.589 11.976 743.554 11.656 742.68 11.016C741.826 10.3547 741.4 9.448 741.4 8.296C741.4 7.16533 741.826 6.28 742.68 5.64C743.554 4.97867 744.589 4.648 745.784 4.648C746.957 4.648 747.97 4.97867 748.824 5.64C749.698 6.28 750.136 7.16533 750.136 8.296C750.136 9.448 749.698 10.3547 748.824 11.016C747.97 11.656 746.957 11.976 745.784 11.976ZM774.835 53.64C771.336 53.64 768.243 52.8827 765.555 51.368C762.888 49.8533 760.798 47.7733 759.283 45.128C757.79 42.4613 757.043 39.4107 757.043 35.976C757.043 32.5627 757.79 29.544 759.283 26.92C760.798 24.2747 762.888 22.216 765.555 20.744C768.243 19.2507 771.336 18.504 774.835 18.504C778.334 18.504 781.416 19.2507 784.083 20.744C786.771 22.216 788.862 24.2747 790.355 26.92C791.87 29.544 792.627 32.5627 792.627 35.976C792.627 39.4107 791.87 42.4613 790.355 45.128C788.862 47.7733 786.771 49.8533 784.083 51.368C781.416 52.8827 778.334 53.64 774.835 53.64ZM774.835 47.688C776.968 47.688 778.846 47.208 780.467 46.248C782.088 45.288 783.358 43.9333 784.275 42.184C785.192 40.4133 785.651 38.344 785.651 35.976C785.651 33.6293 785.192 31.592 784.275 29.864C783.358 28.136 782.088 26.8027 780.467 25.864C778.846 24.9253 776.968 24.456 774.835 24.456C772.723 24.456 770.846 24.9253 769.203 25.864C767.582 26.8027 766.312 28.136 765.395 29.864C764.478 31.592 764.019 33.6293 764.019 35.976C764.019 38.344 764.478 40.4133 765.395 42.184C766.312 43.9333 767.582 45.288 769.203 46.248C770.846 47.208 772.723 47.688 774.835 47.688ZM824.549 53V37.32C824.549 36.4027 824.549 35.624 824.549 34.984C824.549 34.344 824.549 33.7467 824.549 33.192C824.549 31.528 824.293 30.0667 823.781 28.808C823.269 27.528 822.426 26.536 821.253 25.832C820.079 25.1067 818.511 24.744 816.549 24.744C814.821 24.744 813.253 25.1707 811.845 26.024C810.458 26.8773 809.349 28.04 808.517 29.512C807.706 30.9627 807.301 32.616 807.301 34.472L804.325 33C804.325 30.248 804.975 27.784 806.277 25.608C807.578 23.4107 809.317 21.672 811.493 20.392C813.69 19.112 816.09 18.472 818.693 18.472C821.381 18.472 823.674 18.9947 825.573 20.04C827.493 21.064 828.954 22.536 829.957 24.456C830.981 26.3547 831.493 28.6267 831.493 31.272C831.493 32.2533 831.493 33.3413 831.493 34.536C831.493 35.7307 831.493 36.8827 831.493 37.992V53H824.549ZM800.357 53V19.016H807.301V53H800.357ZM856.008 53V5.8H868.968C872.104 5.8 874.941 6.35467 877.48 7.464C880.018 8.57333 882.184 10.152 883.976 12.2C885.789 14.248 887.186 16.7227 888.168 19.624C889.149 22.5253 889.64 25.768 889.64 29.352C889.64 32.9573 889.149 36.2107 888.168 39.112C887.186 42.0133 885.789 44.4987 883.976 46.568C882.184 48.6373 880.018 50.2267 877.48 51.336C874.941 52.4453 872.104 53 868.968 53H856.008ZM862.984 50.888L859.848 47.24H868.135C870.909 47.24 873.384 46.5147 875.56 45.064C877.757 43.6133 879.474 41.5547 880.712 38.888C881.949 36.2 882.568 33.0213 882.568 29.352C882.568 25.6613 881.949 22.4933 880.712 19.848C879.474 17.1813 877.757 15.1333 875.56 13.704C873.384 12.2747 870.909 11.56 868.135 11.56H859.848L862.984 7.912V50.888ZM899.696 38.44V33.032H924.72L923.76 34.632C923.76 34.504 923.76 34.376 923.76 34.248C923.76 34.0987 923.76 33.9707 923.76 33.864C923.76 32.136 923.386 30.5467 922.64 29.096C921.893 27.624 920.773 26.4507 919.28 25.576C917.808 24.68 915.962 24.232 913.744 24.232C911.525 24.232 909.573 24.712 907.888 25.672C906.224 26.6107 904.922 27.9547 903.984 29.704C903.066 31.432 902.608 33.512 902.608 35.944C902.608 38.4187 903.056 40.552 903.952 42.344C904.848 44.1147 906.138 45.48 907.824 46.44C909.509 47.4 911.525 47.88 913.872 47.88C915.514 47.88 916.933 47.72 918.128 47.4C919.344 47.0587 920.336 46.6107 921.104 46.056C921.893 45.5013 922.49 44.904 922.896 44.264C923.301 43.6027 923.536 42.952 923.6 42.312H930.512C930.384 43.6987 929.925 45.0747 929.136 46.44C928.368 47.784 927.269 49.0107 925.84 50.12C924.432 51.208 922.704 52.0827 920.656 52.744C918.629 53.384 916.293 53.704 913.648 53.704C910.106 53.704 907.002 52.9573 904.336 51.464C901.669 49.9707 899.589 47.9013 898.096 45.256C896.602 42.5893 895.856 39.5387 895.856 36.104C895.856 32.6053 896.613 29.5333 898.128 26.888C899.642 24.2427 901.744 22.184 904.432 20.712C907.12 19.2187 910.202 18.472 913.68 18.472C917.221 18.472 920.282 19.2187 922.864 20.712C925.466 22.2053 927.472 24.264 928.88 26.888C930.288 29.512 930.992 32.5307 930.992 35.944C930.992 36.3493 930.981 36.8187 930.96 37.352C930.938 37.8853 930.906 38.248 930.864 38.44H899.696ZM952.108 53.672C950.081 53.672 948.172 53.448 946.38 53C944.588 52.552 943.009 51.9013 941.644 51.048C940.3 50.1733 939.244 49.096 938.476 47.816C937.729 46.536 937.356 45.0533 937.356 43.368C937.356 43.2187 937.356 43.0693 937.356 42.92C937.356 42.7493 937.356 42.6107 937.356 42.504H944.268C944.268 42.6107 944.268 42.7067 944.268 42.792C944.268 42.8773 944.268 42.9947 944.268 43.144C944.268 44.7013 944.982 45.8853 946.412 46.696C947.862 47.4853 949.825 47.88 952.3 47.88C953.75 47.88 955.073 47.7307 956.268 47.432C957.484 47.1333 958.444 46.6747 959.148 46.056C959.873 45.4373 960.236 44.648 960.236 43.688C960.236 42.1307 959.468 41.0213 957.932 40.36C956.417 39.6987 954.113 39.112 951.02 38.6C949.334 38.3013 947.702 37.9173 946.124 37.448C944.566 36.9787 943.158 36.36 941.9 35.592C940.662 34.8027 939.67 33.832 938.924 32.68C938.198 31.5067 937.836 30.0987 937.836 28.456C937.836 26.3227 938.476 24.5093 939.756 23.016C941.036 21.5227 942.764 20.392 944.94 19.624C947.116 18.856 949.516 18.472 952.14 18.472C954.678 18.472 957.025 18.888 959.18 19.72C961.356 20.5307 963.105 21.7147 964.428 23.272C965.75 24.808 966.412 26.696 966.412 28.936C966.412 29.0213 966.412 29.1173 966.412 29.224C966.412 29.3307 966.412 29.4267 966.412 29.512H959.532C959.532 29.4267 959.532 29.352 959.532 29.288C959.532 29.224 959.532 29.1493 959.532 29.064C959.532 27.9547 959.18 27.048 958.476 26.344C957.772 25.64 956.854 25.1173 955.724 24.776C954.614 24.4133 953.43 24.232 952.172 24.232C951.02 24.232 949.857 24.36 948.684 24.616C947.532 24.8507 946.572 25.2667 945.804 25.864C945.036 26.44 944.652 27.2293 944.652 28.232C944.652 29.256 945.025 30.0773 945.772 30.696C946.518 31.2933 947.574 31.7947 948.94 32.2C950.305 32.584 951.894 32.936 953.708 33.256C955.372 33.5547 956.993 33.9387 958.572 34.408C960.15 34.856 961.569 35.4533 962.828 36.2C964.108 36.9467 965.121 37.9067 965.868 39.08C966.636 40.2533 967.02 41.6933 967.02 43.4C967.02 45.1707 966.614 46.696 965.804 47.976C964.993 49.256 963.884 50.3227 962.476 51.176C961.089 52.008 959.5 52.6267 957.708 53.032C955.937 53.4587 954.07 53.672 952.108 53.672ZM974.765 53V19.016H981.613V53H974.765ZM978.221 11.976C977.026 11.976 975.992 11.656 975.117 11.016C974.264 10.3547 973.837 9.448 973.837 8.296C973.837 7.16533 974.264 6.28 975.117 5.64C975.992 4.97867 977.026 4.648 978.221 4.648C979.394 4.648 980.408 4.97867 981.261 5.64C982.136 6.28 982.573 7.16533 982.573 8.296C982.573 9.448 982.136 10.3547 981.261 11.016C980.408 11.656 979.394 11.976 978.221 11.976ZM1013.16 50.28C1015.08 50.4507 1016.77 50.8133 1018.22 51.368C1019.67 51.9013 1020.8 52.6907 1021.61 53.736C1022.44 54.8027 1022.86 56.2 1022.86 57.928C1022.86 59.8693 1022.2 61.5547 1020.87 62.984C1019.57 64.4347 1017.62 65.5547 1015.02 66.344C1012.41 67.1547 1009.18 67.56 1005.32 67.56C999.795 67.56 995.582 66.76 992.681 65.16C989.779 63.56 988.329 61.384 988.329 58.632C988.329 57.8 988.425 57.064 988.617 56.424C988.809 55.784 989.043 55.2507 989.321 54.824L995.785 55.784C995.635 55.9973 995.486 56.3067 995.337 56.712C995.187 57.1387 995.113 57.6507 995.113 58.248C995.113 59.7627 996.041 60.84 997.897 61.48C999.753 62.12 1002.32 62.44 1005.61 62.44C1008.02 62.44 1010.01 62.2693 1011.59 61.928C1013.19 61.608 1014.39 61.1387 1015.18 60.52C1015.97 59.9013 1016.36 59.176 1016.36 58.344C1016.36 57.0853 1015.82 56.296 1014.73 55.976C1013.64 55.656 1012.33 55.432 1010.79 55.304L997.897 54.248C995.657 54.056 993.822 53.384 992.393 52.232C990.985 51.08 990.281 49.6293 990.281 47.88C990.281 46.792 990.558 45.7787 991.113 44.84C991.667 43.9013 992.307 43.112 993.033 42.472C993.779 41.832 994.419 41.4373 994.953 41.288L999.497 43.464C999.006 43.528 998.409 43.8587 997.705 44.456C997.022 45.032 996.681 45.7147 996.681 46.504C996.681 47.2293 996.979 47.8267 997.577 48.296C998.195 48.7653 999.39 49.0747 1001.16 49.224L1013.16 50.28ZM1017.42 19.016H1023.72L1021.13 32.296C1020.66 34.7707 1019.8 37.0107 1018.54 39.016C1017.3 41 1015.61 42.568 1013.48 43.72C1011.37 44.872 1008.73 45.448 1005.58 45.448C1002.29 45.448 999.465 44.8827 997.097 43.752C994.729 42.6213 992.905 41.0533 991.625 39.048C990.366 37.0213 989.737 34.7173 989.737 32.136C989.737 29.512 990.387 27.1653 991.689 25.096C993.011 23.0267 994.825 21.4053 997.129 20.232C999.454 19.0587 1002.11 18.472 1005.1 18.472C1007.61 18.472 1009.84 18.8987 1011.78 19.752C1013.75 20.6053 1015.3 21.6933 1016.46 23.016C1017.61 24.3387 1018.24 25.7147 1018.34 27.144L1016.36 27.368L1017.42 19.016ZM1005.54 39.784C1007.4 39.784 1009 39.4853 1010.34 38.888C1011.69 38.2693 1012.72 37.384 1013.45 36.232C1014.17 35.0587 1014.54 33.6507 1014.54 32.008C1014.54 30.3867 1014.17 29 1013.45 27.848C1012.72 26.6747 1011.69 25.7787 1010.34 25.16C1009 24.52 1007.41 24.2 1005.58 24.2C1003.81 24.2 1002.24 24.5307 1000.87 25.192C999.529 25.832 998.473 26.7387 997.705 27.912C996.937 29.0853 996.553 30.4827 996.553 32.104C996.553 33.7253 996.915 35.112 997.641 36.264C998.366 37.3947 999.401 38.2693 1000.74 38.888C1002.09 39.4853 1003.69 39.784 1005.54 39.784ZM1054.49 53V37.32C1054.49 36.4027 1054.49 35.624 1054.49 34.984C1054.49 34.344 1054.49 33.7467 1054.49 33.192C1054.49 31.528 1054.23 30.0667 1053.72 28.808C1053.21 27.528 1052.36 26.536 1051.19 25.832C1050.02 25.1067 1048.45 24.744 1046.49 24.744C1044.76 24.744 1043.19 25.1707 1041.78 26.024C1040.4 26.8773 1039.29 28.04 1038.45 29.512C1037.64 30.9627 1037.24 32.616 1037.24 34.472L1034.26 33C1034.26 30.248 1034.91 27.784 1036.21 25.608C1037.52 23.4107 1039.25 21.672 1041.43 20.392C1043.63 19.112 1046.03 18.472 1048.63 18.472C1051.32 18.472 1053.61 18.9947 1055.51 20.04C1057.43 21.064 1058.89 22.536 1059.89 24.456C1060.92 26.3547 1061.43 28.6267 1061.43 31.272C1061.43 32.2533 1061.43 33.3413 1061.43 34.536C1061.43 35.7307 1061.43 36.8827 1061.43 37.992V53H1054.49ZM1030.29 53V19.016H1037.24V53H1030.29ZM1072.63 38.44V33.032H1097.66L1096.7 34.632C1096.7 34.504 1096.7 34.376 1096.7 34.248C1096.7 34.0987 1096.7 33.9707 1096.7 33.864C1096.7 32.136 1096.32 30.5467 1095.58 29.096C1094.83 27.624 1093.71 26.4507 1092.22 25.576C1090.75 24.68 1088.9 24.232 1086.68 24.232C1084.46 24.232 1082.51 24.712 1080.83 25.672C1079.16 26.6107 1077.86 27.9547 1076.92 29.704C1076 31.432 1075.55 33.512 1075.55 35.944C1075.55 38.4187 1075.99 40.552 1076.89 42.344C1077.79 44.1147 1079.08 45.48 1080.76 46.44C1082.45 47.4 1084.46 47.88 1086.81 47.88C1088.45 47.88 1089.87 47.72 1091.07 47.4C1092.28 47.0587 1093.27 46.6107 1094.04 46.056C1094.83 45.5013 1095.43 44.904 1095.83 44.264C1096.24 43.6027 1096.47 42.952 1096.54 42.312H1103.45C1103.32 43.6987 1102.86 45.0747 1102.07 46.44C1101.31 47.784 1100.21 49.0107 1098.78 50.12C1097.37 51.208 1095.64 52.0827 1093.59 52.744C1091.57 53.384 1089.23 53.704 1086.59 53.704C1083.04 53.704 1079.94 52.9573 1077.27 51.464C1074.61 49.9707 1072.53 47.9013 1071.03 45.256C1069.54 42.5893 1068.79 39.5387 1068.79 36.104C1068.79 32.6053 1069.55 29.5333 1071.07 26.888C1072.58 24.2427 1074.68 22.184 1077.37 20.712C1080.06 19.2187 1083.14 18.472 1086.62 18.472C1090.16 18.472 1093.22 19.2187 1095.8 20.712C1098.4 22.2053 1100.41 24.264 1101.82 26.888C1103.23 29.512 1103.93 32.5307 1103.93 35.944C1103.93 36.3493 1103.92 36.8187 1103.9 37.352C1103.88 37.8853 1103.84 38.248 1103.8 38.44H1072.63ZM1111.67 53V19.016H1118.61V29.864L1116.76 29.032C1116.91 27.6453 1117.26 26.3227 1117.81 25.064C1118.37 23.8053 1119.1 22.6853 1120.02 21.704C1120.96 20.7013 1122.11 19.912 1123.48 19.336C1124.84 18.76 1126.42 18.472 1128.21 18.472C1129.58 18.472 1130.68 18.5787 1131.51 18.792C1132.36 19.0053 1132.89 19.176 1133.08 19.304L1131.61 25.832C1131.39 25.6827 1130.95 25.4907 1130.29 25.256C1129.65 25.0213 1128.76 24.904 1127.61 24.904C1125.86 24.904 1124.41 25.2133 1123.25 25.832C1122.1 26.4507 1121.18 27.272 1120.5 28.296C1119.82 29.32 1119.33 30.44 1119.03 31.656C1118.75 32.8507 1118.61 34.056 1118.61 35.272V53H1111.67Z" fill="white"/>
<path d="M1168.88 33.75C1169.37 33.75 1169.85 33.5525 1170.2 33.2008C1170.55 32.8492 1170.75 32.3723 1170.75 31.875C1170.75 31.3777 1170.55 30.9008 1170.2 30.5492C1169.85 30.1975 1169.37 30 1168.88 30C1168.38 30 1167.9 30.1975 1167.55 30.5492C1167.2 30.9008 1167 31.3777 1167 31.875C1167 32.3723 1167.2 32.8492 1167.55 33.2008C1167.9 33.5525 1168.38 33.75 1168.88 33.75ZM1162 31.875C1162 32.3723 1161.8 32.8492 1161.45 33.2008C1161.1 33.5525 1160.62 33.75 1160.12 33.75C1159.63 33.75 1159.15 33.5525 1158.8 33.2008C1158.45 32.8492 1158.25 32.3723 1158.25 31.875C1158.25 31.3777 1158.45 30.9008 1158.8 30.5492C1159.15 30.1975 1159.63 30 1160.12 30C1160.62 30 1161.1 30.1975 1161.45 30.5492C1161.8 30.9008 1162 31.3777 1162 31.875ZM1157.41 38.9125C1157.61 38.773 1157.87 38.7204 1158.11 38.766C1158.35 38.8117 1158.57 38.952 1158.71 39.1562L1158.72 39.1712L1158.78 39.245C1158.83 39.3125 1158.91 39.415 1159.03 39.5425C1159.26 39.7963 1159.62 40.1425 1160.1 40.4888C1161.06 41.18 1162.52 41.875 1164.5 41.875C1166.49 41.875 1167.94 41.18 1168.9 40.4888C1169.38 40.1425 1169.74 39.7963 1169.97 39.5425C1170.08 39.4238 1170.18 39.2999 1170.28 39.1712L1170.29 39.1587C1170.43 38.9532 1170.64 38.8117 1170.89 38.7654C1171.13 38.7191 1171.39 38.7718 1171.59 38.9119C1171.8 39.0519 1171.94 39.2679 1171.99 39.5123C1172.03 39.7567 1171.98 40.0095 1171.84 40.215L1171.84 40.2163V40.2188L1171.83 40.2225L1171.82 40.235L1171.8 40.2738L1171.7 40.3988C1171.59 40.54 1171.47 40.6772 1171.35 40.81C1170.94 41.256 1170.49 41.6581 1169.99 42.01C1168.78 42.8837 1166.95 43.75 1164.5 43.75C1162.05 43.75 1160.22 42.8825 1159.01 42.0112C1158.51 41.6587 1158.06 41.2557 1157.65 40.8088C1157.48 40.6258 1157.32 40.4347 1157.18 40.2362L1157.17 40.2238L1157.16 40.2188L1157.16 40.2163L1157.16 40.215C1157.02 40.0095 1156.97 39.7568 1157.02 39.5125C1157.06 39.2682 1157.2 39.0524 1157.41 38.9125ZM1164.5 20C1156.22 20 1149.5 26.7163 1149.5 35C1149.5 43.2838 1156.22 50 1164.5 50C1172.78 50 1179.5 43.2838 1179.5 35C1179.5 26.7163 1172.78 20 1164.5 20ZM1151.38 35C1151.38 27.7513 1157.25 21.875 1164.5 21.875C1171.75 21.875 1177.62 27.7513 1177.62 35C1177.62 42.2487 1171.75 48.125 1164.5 48.125C1157.25 48.125 1151.38 42.2487 1151.38 35Z" fill="white"/>
<path d="M1205.26 53H1198.32V5.8H1212.53C1216.15 5.8 1219.19 6.48267 1221.65 7.848C1224.12 9.21333 1225.98 11.0587 1227.22 13.384C1228.47 15.688 1229.1 18.2693 1229.1 21.128C1229.1 23.9867 1228.46 26.6213 1227.18 29.032C1225.93 31.4213 1224.06 33.3413 1221.58 34.792C1219.11 36.2427 1216.09 36.968 1212.53 36.968H1205.26V53ZM1205.26 34.6L1202.13 31.208H1211.73C1213.99 31.208 1215.89 30.8027 1217.42 29.992C1218.98 29.16 1220.15 27.9867 1220.94 26.472C1221.73 24.9573 1222.13 23.176 1222.13 21.128C1222.13 19.08 1221.74 17.3413 1220.98 15.912C1220.21 14.4827 1219.06 13.4053 1217.52 12.68C1215.98 11.9333 1214.05 11.56 1211.73 11.56H1202.13L1205.26 7.912V34.6ZM1260.52 53V40.552C1260.52 39.9973 1260.52 39.3253 1260.52 38.536C1260.52 37.7467 1260.52 36.9467 1260.52 36.136C1260.52 35.304 1260.52 34.6107 1260.52 34.056C1260.52 31.0053 1259.89 28.6907 1258.63 27.112C1257.39 25.5333 1255.36 24.744 1252.52 24.744C1250.62 24.744 1248.98 25.1173 1247.59 25.864C1246.2 26.6107 1245.13 27.6347 1244.36 28.936C1243.61 30.2373 1243.24 31.72 1243.24 33.384L1239.97 32.04C1239.97 29.4587 1240.59 27.1547 1241.83 25.128C1243.09 23.08 1244.81 21.4587 1246.98 20.264C1249.18 19.0693 1251.69 18.472 1254.5 18.472C1258.6 18.472 1261.78 19.6987 1264.04 22.152C1266.32 24.584 1267.46 27.976 1267.46 32.328C1267.46 33.4373 1267.46 34.7493 1267.46 36.264C1267.46 37.7573 1267.46 39.3893 1267.46 41.16V53H1260.52ZM1236.29 53V2.984H1243.24V53H1236.29ZM1292.65 53.64C1289.15 53.64 1286.06 52.8827 1283.37 51.368C1280.7 49.8533 1278.61 47.7733 1277.1 45.128C1275.6 42.4613 1274.86 39.4107 1274.86 35.976C1274.86 32.5627 1275.6 29.544 1277.1 26.92C1278.61 24.2747 1280.7 22.216 1283.37 20.744C1286.06 19.2507 1289.15 18.504 1292.65 18.504C1296.15 18.504 1299.23 19.2507 1301.9 20.744C1304.58 22.216 1306.67 24.2747 1308.17 26.92C1309.68 29.544 1310.44 32.5627 1310.44 35.976C1310.44 39.4107 1309.68 42.4613 1308.17 45.128C1306.67 47.7733 1304.58 49.8533 1301.9 51.368C1299.23 52.8827 1296.15 53.64 1292.65 53.64ZM1292.65 47.688C1294.78 47.688 1296.66 47.208 1298.28 46.248C1299.9 45.288 1301.17 43.9333 1302.09 42.184C1303 40.4133 1303.46 38.344 1303.46 35.976C1303.46 33.6293 1303 31.592 1302.09 29.864C1301.17 28.136 1299.9 26.8027 1298.28 25.864C1296.66 24.9253 1294.78 24.456 1292.65 24.456C1290.54 24.456 1288.66 24.9253 1287.02 25.864C1285.39 26.8027 1284.12 28.136 1283.21 29.864C1282.29 31.592 1281.83 33.6293 1281.83 35.976C1281.83 38.344 1282.29 40.4133 1283.21 42.184C1284.12 43.9333 1285.39 45.288 1287.02 46.248C1288.66 47.208 1290.54 47.688 1292.65 47.688ZM1332.13 53.576C1331 53.576 1329.87 53.4587 1328.74 53.224C1327.63 52.9893 1326.61 52.5627 1325.67 51.944C1324.75 51.304 1324.02 50.3973 1323.46 49.224C1322.91 48.0507 1322.63 46.5147 1322.63 44.616C1322.63 44.168 1322.63 43.6987 1322.63 43.208C1322.63 42.7173 1322.63 42.216 1322.63 41.704V24.776H1314.47V19.016H1318.76C1319.68 19.016 1320.39 18.984 1320.9 18.92C1321.44 18.8347 1321.82 18.6533 1322.05 18.376C1322.31 18.0773 1322.47 17.608 1322.53 16.968C1322.6 16.328 1322.63 15.4533 1322.63 14.344V7.784H1329.57V19.016H1339.97V24.776H1329.57V39.848C1329.57 40.2747 1329.57 40.7013 1329.57 41.128C1329.57 41.5547 1329.57 41.9493 1329.57 42.312C1329.57 44.0187 1329.78 45.3627 1330.18 46.344C1330.61 47.3253 1331.57 47.816 1333.06 47.816C1333.7 47.816 1334.31 47.7627 1334.89 47.656C1335.46 47.5493 1335.9 47.432 1336.2 47.304V52.968C1335.81 53.1173 1335.27 53.256 1334.57 53.384C1333.86 53.512 1333.05 53.576 1332.13 53.576ZM1362.02 53.64C1358.52 53.64 1355.43 52.8827 1352.74 51.368C1350.08 49.8533 1347.99 47.7733 1346.47 45.128C1344.98 42.4613 1344.23 39.4107 1344.23 35.976C1344.23 32.5627 1344.98 29.544 1346.47 26.92C1347.99 24.2747 1350.08 22.216 1352.74 20.744C1355.43 19.2507 1358.52 18.504 1362.02 18.504C1365.52 18.504 1368.6 19.2507 1371.27 20.744C1373.96 22.216 1376.05 24.2747 1377.54 26.92C1379.06 29.544 1379.81 32.5627 1379.81 35.976C1379.81 39.4107 1379.06 42.4613 1377.54 45.128C1376.05 47.7733 1373.96 49.8533 1371.27 51.368C1368.6 52.8827 1365.52 53.64 1362.02 53.64ZM1362.02 47.688C1364.16 47.688 1366.03 47.208 1367.65 46.248C1369.28 45.288 1370.55 43.9333 1371.46 42.184C1372.38 40.4133 1372.84 38.344 1372.84 35.976C1372.84 33.6293 1372.38 31.592 1371.46 29.864C1370.55 28.136 1369.28 26.8027 1367.65 25.864C1366.03 24.9253 1364.16 24.456 1362.02 24.456C1359.91 24.456 1358.03 24.9253 1356.39 25.864C1354.77 26.8027 1353.5 28.136 1352.58 29.864C1351.67 31.592 1351.21 33.6293 1351.21 35.976C1351.21 38.344 1351.67 40.4133 1352.58 42.184C1353.5 43.9333 1354.77 45.288 1356.39 46.248C1358.03 47.208 1359.91 47.688 1362.02 47.688ZM1409.85 50.28C1411.77 50.4507 1413.45 50.8133 1414.9 51.368C1416.35 51.9013 1417.49 52.6907 1418.3 53.736C1419.13 54.8027 1419.54 56.2 1419.54 57.928C1419.54 59.8693 1418.88 61.5547 1417.56 62.984C1416.26 64.4347 1414.31 65.5547 1411.7 66.344C1409.1 67.1547 1405.87 67.56 1402.01 67.56C1396.48 67.56 1392.27 66.76 1389.37 65.16C1386.47 63.56 1385.02 61.384 1385.02 58.632C1385.02 57.8 1385.11 57.064 1385.3 56.424C1385.5 55.784 1385.73 55.2507 1386.01 54.824L1392.47 55.784C1392.32 55.9973 1392.17 56.3067 1392.02 56.712C1391.87 57.1387 1391.8 57.6507 1391.8 58.248C1391.8 59.7627 1392.73 60.84 1394.58 61.48C1396.44 62.12 1399.01 62.44 1402.3 62.44C1404.71 62.44 1406.7 62.2693 1408.28 61.928C1409.88 61.608 1411.07 61.1387 1411.86 60.52C1412.65 59.9013 1413.05 59.176 1413.05 58.344C1413.05 57.0853 1412.5 56.296 1411.42 55.976C1410.33 55.656 1409.02 55.432 1407.48 55.304L1394.58 54.248C1392.34 54.056 1390.51 53.384 1389.08 52.232C1387.67 51.08 1386.97 49.6293 1386.97 47.88C1386.97 46.792 1387.25 45.7787 1387.8 44.84C1388.35 43.9013 1388.99 43.112 1389.72 42.472C1390.47 41.832 1391.11 41.4373 1391.64 41.288L1396.18 43.464C1395.69 43.528 1395.1 43.8587 1394.39 44.456C1393.71 45.032 1393.37 45.7147 1393.37 46.504C1393.37 47.2293 1393.67 47.8267 1394.26 48.296C1394.88 48.7653 1396.08 49.0747 1397.85 49.224L1409.85 50.28ZM1414.1 19.016H1420.41L1417.82 32.296C1417.35 34.7707 1416.48 37.0107 1415.22 39.016C1413.99 41 1412.3 42.568 1410.17 43.72C1408.06 44.872 1405.42 45.448 1402.26 45.448C1398.98 45.448 1396.15 44.8827 1393.78 43.752C1391.42 42.6213 1389.59 41.0533 1388.31 39.048C1387.05 37.0213 1386.42 34.7173 1386.42 32.136C1386.42 29.512 1387.07 27.1653 1388.38 25.096C1389.7 23.0267 1391.51 21.4053 1393.82 20.232C1396.14 19.0587 1398.8 18.472 1401.78 18.472C1404.3 18.472 1406.53 18.8987 1408.47 19.752C1410.43 20.6053 1411.99 21.6933 1413.14 23.016C1414.3 24.3387 1414.93 25.7147 1415.03 27.144L1413.05 27.368L1414.1 19.016ZM1402.23 39.784C1404.09 39.784 1405.69 39.4853 1407.03 38.888C1408.38 38.2693 1409.41 37.384 1410.14 36.232C1410.86 35.0587 1411.22 33.6507 1411.22 32.008C1411.22 30.3867 1410.86 29 1410.14 27.848C1409.41 26.6747 1408.38 25.7787 1407.03 25.16C1405.69 24.52 1404.1 24.2 1402.26 24.2C1400.49 24.2 1398.93 24.5307 1397.56 25.192C1396.22 25.832 1395.16 26.7387 1394.39 27.912C1393.62 29.0853 1393.24 30.4827 1393.24 32.104C1393.24 33.7253 1393.6 35.112 1394.33 36.264C1395.05 37.3947 1396.09 38.2693 1397.43 38.888C1398.78 39.4853 1400.38 39.784 1402.23 39.784ZM1426.98 53V19.016H1433.93V29.864L1432.07 29.032C1432.22 27.6453 1432.57 26.3227 1433.13 25.064C1433.68 23.8053 1434.42 22.6853 1435.33 21.704C1436.27 20.7013 1437.42 19.912 1438.79 19.336C1440.15 18.76 1441.73 18.472 1443.53 18.472C1444.89 18.472 1445.99 18.5787 1446.82 18.792C1447.67 19.0053 1448.2 19.176 1448.39 19.304L1446.92 25.832C1446.7 25.6827 1446.27 25.4907 1445.61 25.256C1444.97 25.0213 1444.07 24.904 1442.92 24.904C1441.17 24.904 1439.72 25.2133 1438.57 25.832C1437.41 26.4507 1436.5 27.272 1435.81 28.296C1435.13 29.32 1434.64 30.44 1434.34 31.656C1434.06 32.8507 1433.93 34.056 1433.93 35.272V53H1426.98ZM1465.13 53.672C1462.57 53.672 1460.32 53.2667 1458.38 52.456C1456.46 51.6453 1454.97 50.4827 1453.9 48.968C1452.83 47.4533 1452.3 45.6293 1452.3 43.496C1452.3 41.2133 1452.9 39.3253 1454.09 37.832C1455.31 36.3387 1456.97 35.1867 1459.08 34.376C1461.22 33.544 1463.64 33 1466.35 32.744C1470.38 32.3387 1473.22 31.944 1474.86 31.56C1476.52 31.176 1477.36 30.5467 1477.36 29.672C1477.36 29.6507 1477.36 29.6293 1477.36 29.608C1477.36 27.88 1476.62 26.568 1475.15 25.672C1473.68 24.776 1471.58 24.328 1468.84 24.328C1465.96 24.328 1463.74 24.84 1462.16 25.864C1460.6 26.8667 1459.82 28.4667 1459.82 30.664H1453C1453 28.0613 1453.68 25.8533 1455.02 24.04C1456.39 22.2267 1458.26 20.8507 1460.65 19.912C1463.04 18.952 1465.78 18.472 1468.88 18.472C1471.71 18.472 1474.3 18.9093 1476.62 19.784C1478.97 20.6373 1480.83 21.9173 1482.22 23.624C1483.61 25.3307 1484.3 27.4533 1484.3 29.992C1484.3 30.44 1484.3 30.888 1484.3 31.336C1484.3 31.7627 1484.3 32.2 1484.3 32.648V46.216C1484.3 47.0053 1484.33 47.7733 1484.4 48.52C1484.46 49.2453 1484.58 49.896 1484.75 50.472C1484.94 51.1333 1485.16 51.6773 1485.42 52.104C1485.7 52.5307 1485.92 52.8293 1486.09 53H1479.18C1479.05 52.872 1478.86 52.6053 1478.6 52.2C1478.37 51.7733 1478.16 51.2827 1477.96 50.728C1477.77 50.1947 1477.62 49.5867 1477.52 48.904C1477.43 48.2 1477.39 47.4427 1477.39 46.632L1478.67 47.528C1478.03 48.7653 1477.06 49.8427 1475.76 50.76C1474.48 51.6773 1472.93 52.392 1471.12 52.904C1469.32 53.416 1467.33 53.672 1465.13 53.672ZM1466.57 47.912C1468.56 47.912 1470.36 47.6027 1471.98 46.984C1473.62 46.344 1474.94 45.384 1475.92 44.104C1476.9 42.8027 1477.39 41.1707 1477.39 39.208V33.576L1479.02 35.72C1477.66 36.2533 1475.98 36.6907 1474 37.032C1472.03 37.352 1470.01 37.6187 1467.92 37.832C1465.04 38.088 1462.87 38.5893 1461.42 39.336C1459.97 40.0613 1459.24 41.2773 1459.24 42.984C1459.24 44.6267 1459.84 45.864 1461.04 46.696C1462.25 47.5067 1464.1 47.912 1466.57 47.912ZM1492.73 66.984V19.016H1499.68V66.984H1492.73ZM1510.62 53.672C1507.97 53.672 1505.52 53.0107 1503.26 51.688C1501 50.344 1499.16 48.5093 1497.76 46.184C1496.37 43.8587 1495.68 41.224 1495.68 38.28C1495.68 38.1947 1495.68 38.1307 1495.68 38.088C1495.68 38.024 1495.68 37.96 1495.68 37.896L1499.71 37.8C1499.71 37.8427 1499.71 37.896 1499.71 37.96C1499.71 38.0027 1499.71 38.056 1499.71 38.12C1499.71 39.8693 1500.16 41.448 1501.05 42.856C1501.97 44.2427 1503.15 45.3413 1504.6 46.152C1506.05 46.9627 1507.61 47.368 1509.28 47.368C1512.01 47.368 1514.3 46.44 1516.16 44.584C1518.03 42.7067 1518.97 39.8267 1518.97 35.944C1518.97 32.04 1518.04 29.1707 1516.19 27.336C1514.33 25.48 1512.03 24.552 1509.28 24.552C1507.61 24.552 1506.05 24.9573 1504.6 25.768C1503.15 26.5573 1501.97 27.6453 1501.05 29.032C1500.16 30.3973 1499.71 31.9653 1499.71 33.736L1495.68 33.576C1495.68 30.6107 1496.37 27.9973 1497.76 25.736C1499.16 23.4533 1501 21.672 1503.26 20.392C1505.52 19.112 1507.97 18.472 1510.62 18.472C1513.37 18.472 1515.92 19.1547 1518.27 20.52C1520.61 21.864 1522.5 23.8373 1523.93 26.44C1525.38 29.0427 1526.11 32.2107 1526.11 35.944C1526.11 39.7627 1525.4 42.9947 1524 45.64C1522.59 48.2853 1520.71 50.2907 1518.36 51.656C1516.02 53 1513.44 53.672 1510.62 53.672ZM1558.02 53V40.552C1558.02 39.9973 1558.02 39.3253 1558.02 38.536C1558.02 37.7467 1558.02 36.9467 1558.02 36.136C1558.02 35.304 1558.02 34.6107 1558.02 34.056C1558.02 31.0053 1557.39 28.6907 1556.13 27.112C1554.89 25.5333 1552.86 24.744 1550.02 24.744C1548.12 24.744 1546.48 25.1173 1545.09 25.864C1543.7 26.6107 1542.63 27.6347 1541.86 28.936C1541.11 30.2373 1540.74 31.72 1540.74 33.384L1537.47 32.04C1537.47 29.4587 1538.09 27.1547 1539.33 25.128C1540.59 23.08 1542.31 21.4587 1544.48 20.264C1546.68 19.0693 1549.19 18.472 1552 18.472C1556.1 18.472 1559.28 19.6987 1561.54 22.152C1563.82 24.584 1564.96 27.976 1564.96 32.328C1564.96 33.4373 1564.96 34.7493 1564.96 36.264C1564.96 37.7573 1564.96 39.3893 1564.96 41.16V53H1558.02ZM1533.79 53V2.984H1540.74V53H1533.79ZM1576.2 38.44V33.032H1601.22L1600.26 34.632C1600.26 34.504 1600.26 34.376 1600.26 34.248C1600.26 34.0987 1600.26 33.9707 1600.26 33.864C1600.26 32.136 1599.89 30.5467 1599.14 29.096C1598.39 27.624 1597.27 26.4507 1595.78 25.576C1594.31 24.68 1592.46 24.232 1590.24 24.232C1588.02 24.232 1586.07 24.712 1584.39 25.672C1582.72 26.6107 1581.42 27.9547 1580.48 29.704C1579.57 31.432 1579.11 33.512 1579.11 35.944C1579.11 38.4187 1579.56 40.552 1580.45 42.344C1581.35 44.1147 1582.64 45.48 1584.32 46.44C1586.01 47.4 1588.02 47.88 1590.37 47.88C1592.01 47.88 1593.43 47.72 1594.63 47.4C1595.84 47.0587 1596.84 46.6107 1597.6 46.056C1598.39 45.5013 1598.99 44.904 1599.4 44.264C1599.8 43.6027 1600.04 42.952 1600.1 42.312H1607.01C1606.88 43.6987 1606.42 45.0747 1605.64 46.44C1604.87 47.784 1603.77 49.0107 1602.34 50.12C1600.93 51.208 1599.2 52.0827 1597.16 52.744C1595.13 53.384 1592.79 53.704 1590.15 53.704C1586.61 53.704 1583.5 52.9573 1580.84 51.464C1578.17 49.9707 1576.09 47.9013 1574.6 45.256C1573.1 42.5893 1572.36 39.5387 1572.36 36.104C1572.36 32.6053 1573.11 29.5333 1574.63 26.888C1576.14 24.2427 1578.24 22.184 1580.93 20.712C1583.62 19.2187 1586.7 18.472 1590.18 18.472C1593.72 18.472 1596.78 19.2187 1599.36 20.712C1601.97 22.2053 1603.97 24.264 1605.38 26.888C1606.79 29.512 1607.49 32.5307 1607.49 35.944C1607.49 36.3493 1607.48 36.8187 1607.46 37.352C1607.44 37.8853 1607.41 38.248 1607.36 38.44H1576.2ZM1615.23 53V19.016H1622.18V29.864L1620.32 29.032C1620.47 27.6453 1620.82 26.3227 1621.38 25.064C1621.93 23.8053 1622.67 22.6853 1623.58 21.704C1624.52 20.7013 1625.67 19.912 1627.04 19.336C1628.4 18.76 1629.98 18.472 1631.78 18.472C1633.14 18.472 1634.24 18.5787 1635.07 18.792C1635.92 19.0053 1636.45 19.176 1636.64 19.304L1635.17 25.832C1634.95 25.6827 1634.52 25.4907 1633.86 25.256C1633.22 25.0213 1632.32 24.904 1631.17 24.904C1629.42 24.904 1627.97 25.2133 1626.82 25.832C1625.66 26.4507 1624.75 27.272 1624.06 28.296C1623.38 29.32 1622.89 30.44 1622.59 31.656C1622.31 32.8507 1622.18 34.056 1622.18 35.272V53H1615.23Z" fill="white"/>
</svg>
