<svg width="115" height="114" viewBox="0 0 115 114" fill="none" xmlns="http://www.w3.org/2000/svg">
<path d="M87.8993 93.2332C88.3844 92.8447 88.7725 92.5533 89.2576 92.262C89.7427 91.9706 90.2278 91.8735 90.7129 91.7764C90.9069 91.7764 91.1009 91.7764 91.198 91.8735C91.295 91.9706 91.392 92.0678 91.489 92.262C91.489 92.3591 91.489 92.5533 91.489 92.6505C91.392 92.7476 91.295 92.8447 91.1009 92.8447C90.6158 92.9418 90.2278 93.0389 89.8397 93.2332C89.4516 93.4274 89.0635 93.7188 88.6754 94.0101C88.0933 94.4957 87.8023 94.8842 87.7052 95.3698C87.6082 95.7582 87.7052 96.1467 87.9963 96.4381C88.1903 96.7294 88.4814 96.8265 88.7725 96.8265C89.0635 96.8265 89.4516 96.6323 90.0337 96.4381L91.198 95.7582C91.8771 95.3698 92.5562 95.1755 93.1384 95.2726C93.7205 95.2726 94.2056 95.564 94.5937 96.0496C94.9817 96.4381 95.1758 96.9236 95.1758 97.4092C95.1758 97.8948 95.1758 98.3804 94.8847 98.866C94.6907 99.3516 94.3026 99.8372 93.8175 100.226C93.4294 100.517 93.0413 100.808 92.5562 101.003C92.1682 101.197 91.6831 101.294 91.198 101.294C91.0039 101.294 90.9069 101.294 90.8099 101.197C90.7129 101.1 90.6158 101.003 90.6158 100.808C90.6158 100.711 90.6158 100.517 90.7129 100.42C90.8099 100.323 90.9069 100.226 91.1009 100.226C91.489 100.226 91.8771 100.129 92.1682 99.9343C92.4592 99.7401 92.8473 99.5458 93.1384 99.3516C93.6235 98.9631 93.9145 98.4775 94.0115 98.0891C94.1086 97.6035 94.0115 97.215 93.7205 96.9236C93.5264 96.6323 93.2354 96.5352 92.9443 96.5352C92.6533 96.5352 92.2652 96.6323 91.7801 96.9236L90.6158 97.6035C89.8397 97.9919 89.2576 98.1862 88.6754 98.1862C88.0933 98.1862 87.6082 97.8948 87.2201 97.5064C86.9291 97.1179 86.735 96.6323 86.638 96.2438C86.541 95.8553 86.735 95.2726 86.9291 94.7871C87.0261 94.2043 87.4142 93.7188 87.8993 93.2332Z" fill="#030211"/>
<path d="M77.8089 99.8364C78.5851 99.4479 79.3612 99.2537 80.1374 99.2537C80.9135 99.2537 81.5927 99.5451 82.1748 100.031C82.7569 100.516 83.339 101.099 83.7271 101.973C84.1152 102.847 84.4062 103.624 84.4062 104.401C84.4062 105.178 84.2122 105.858 83.8241 106.44C83.4361 107.023 82.8539 107.606 81.9808 107.994C81.4957 108.189 81.1076 108.383 80.6225 108.48C80.1374 108.577 79.7493 108.577 79.2642 108.48C79.0702 108.48 78.8761 108.383 78.7791 108.286C78.6821 108.189 78.6821 107.994 78.6821 107.897C78.6821 107.703 78.7791 107.606 78.8761 107.509C78.9731 107.412 79.1672 107.412 79.3612 107.412C79.7493 107.509 80.0404 107.509 80.4284 107.412C80.8165 107.314 81.1076 107.217 81.3986 107.12C82.2718 106.732 82.7569 106.052 82.951 105.372C83.145 104.692 82.951 103.721 82.4659 102.75C81.9808 101.779 81.3986 101.099 80.6225 100.808C79.9433 100.516 79.0702 100.613 78.294 101.002C78.0029 101.196 77.7119 101.39 77.4208 101.585C77.1298 101.876 76.9357 102.07 76.7417 102.459C76.6447 102.653 76.5476 102.75 76.3536 102.75C76.2566 102.75 76.0625 102.75 75.9655 102.653C75.8685 102.556 75.7715 102.459 75.6745 102.264C75.6745 102.07 75.6745 101.973 75.7715 101.779C75.9655 101.39 76.2566 101.002 76.5476 100.613C77.0327 100.419 77.4208 100.128 77.8089 99.8364Z" fill="#030211"/>
<path d="M70.0478 102.944C70.4359 102.847 70.727 103.041 70.824 103.43L72.4733 110.908C72.5703 111.296 72.3763 111.588 71.9882 111.685L69.0776 112.365C68.1074 112.559 67.3313 112.559 66.7491 112.17C66.167 111.879 65.7789 111.296 65.5849 110.422C65.4879 109.742 65.4879 109.16 65.7789 108.674C66.07 108.189 66.4581 107.8 67.0402 107.509C66.6521 107.509 66.167 107.217 65.876 106.829L64.4207 105.081C64.2266 104.887 64.1296 104.692 64.2266 104.498C64.2266 104.304 64.4207 104.207 64.7117 104.11C64.9058 104.11 65.0028 104.11 65.1968 104.11C65.2938 104.11 65.4879 104.207 65.5849 104.401L67.4283 106.538C67.7193 106.829 67.9134 107.023 68.2044 107.023C68.4955 107.12 68.7866 107.12 69.0776 107.023L70.4359 106.732L69.7568 103.721C69.4657 103.333 69.6597 103.041 70.0478 102.944ZM70.4359 107.703L68.3015 108.189C67.0402 108.48 66.5551 109.16 66.7491 110.131C66.9432 111.199 67.7193 111.588 68.9806 111.296L71.115 110.811L70.4359 107.703Z" fill="#030211"/>
<path d="M55.3007 104.596C56.1738 104.596 56.853 104.887 57.5321 105.275C58.1142 105.664 58.5993 106.247 58.8904 106.926C59.1815 107.606 59.3755 108.48 59.2785 109.354C59.2785 110.325 59.0844 111.102 58.6964 111.782C58.3083 112.462 57.8232 112.948 57.2411 113.336C56.5619 113.627 55.8828 113.725 55.0096 113.725C54.1364 113.725 53.4573 113.53 52.8752 113.045C52.293 112.656 51.8079 112.074 51.5169 111.394C51.2258 110.714 51.0318 109.937 51.1288 108.966C51.1288 107.995 51.3228 107.218 51.7109 106.538C52.002 105.955 52.4871 105.47 53.0692 105.081C53.6513 104.693 54.5245 104.596 55.3007 104.596ZM55.3007 105.761C54.4275 105.761 53.7483 106.052 53.1662 106.635C52.6811 107.218 52.3901 108.092 52.293 109.16C52.293 110.228 52.4871 111.102 52.9722 111.685C53.4573 112.268 54.1364 112.656 55.0096 112.656C55.8828 112.656 56.5619 112.462 57.144 111.879C57.6291 111.297 57.9202 110.423 58.0172 109.354C58.1142 108.286 57.8232 107.412 57.3381 106.829C56.853 106.052 56.1738 105.761 55.3007 105.761Z" fill="#030211"/>
<path d="M45.5986 103.43C45.9867 103.528 46.1807 103.819 46.0837 104.304L43.9492 111.588C43.8522 111.977 43.5612 112.171 43.1731 112.074C42.785 111.977 42.591 111.685 42.688 111.297L44.6284 104.402L40.8446 103.333C40.4565 103.236 40.3595 103.042 40.4565 102.653C40.5535 102.265 40.8446 102.168 41.1357 102.265L45.5986 103.43Z" fill="#030211"/>
<path d="M35.9938 99.9338C36.3818 100.128 36.4789 100.419 36.2848 100.808L32.6951 107.509C32.501 107.897 32.21 107.995 31.8219 107.8C31.4338 107.606 31.3368 107.315 31.5308 106.926L34.9265 100.614L31.5308 98.7684C31.1428 98.5742 31.1428 98.2828 31.2398 97.9914C31.4338 97.7001 31.7249 97.603 32.0159 97.7972L35.9938 99.9338Z" fill="#030211"/>
<path d="M22.314 89.9305C22.6051 90.319 22.6051 90.6104 22.217 90.9017L16.4928 95.6605C16.1047 95.9518 15.8137 95.9518 15.5226 95.5634L13.9703 93.7181C13.0001 92.5527 12.612 91.4844 12.709 90.4161C12.8061 89.3478 13.3882 88.2795 14.4554 87.4055C15.5226 86.5314 16.6869 86.0458 17.7541 86.2401C18.8213 86.3372 19.8885 87.017 20.8587 88.0853L22.314 89.9305ZM21.0528 90.1248L19.8885 88.7651C18.4332 87.1141 16.8809 86.9199 15.2316 88.3766C13.4852 89.8334 13.3882 91.3873 14.7465 93.0383L15.9107 94.398L21.0528 90.1248Z" fill="#030211"/>
<path d="M13.6795 76.7229C14.0675 77.4999 14.1646 78.2768 14.0675 78.9566C13.9705 79.6365 13.6795 80.3163 13.1944 80.899C12.7093 81.4817 12.0301 81.9673 11.254 82.3558C10.3808 82.7442 9.60463 82.9385 8.82847 82.9385C8.05231 82.9385 7.37317 82.6471 6.79105 82.2587C6.20893 81.8702 5.72383 81.2875 5.33575 80.5105C4.94767 79.7336 4.85065 78.9566 4.94767 78.2768C5.04469 77.597 5.33575 76.9172 5.82085 76.3345C6.30595 75.7518 6.98509 75.2662 7.76125 74.8777C8.63443 74.4892 9.41059 74.295 10.1867 74.295C10.9629 74.295 11.642 74.5863 12.2242 74.9748C12.9033 75.3633 13.2914 75.946 13.6795 76.7229ZM12.6122 77.2085C12.2242 76.4316 11.642 75.946 10.9629 75.7518C10.1867 75.5575 9.31357 75.6546 8.34337 76.1402C7.37317 76.6258 6.69403 77.2085 6.30595 77.8883C5.91787 78.5682 6.01489 79.3451 6.30595 80.1221C6.69403 80.899 7.27615 81.3846 7.95529 81.5788C8.73145 81.7731 9.60463 81.6759 10.5748 81.1904C11.545 80.7048 12.2242 80.1221 12.6122 79.4422C13.0003 78.7624 13.0003 77.9855 12.6122 77.2085Z" fill="#030211"/>
<path d="M10.0898 65.5539C10.0898 65.9424 9.99282 66.1366 9.60474 66.3309L2.23122 69.9242C2.03718 70.0213 1.84314 70.0213 1.6491 69.9242C1.45506 69.8271 1.35805 69.6329 1.35805 69.4386C1.35805 69.2444 1.35805 69.1473 1.45507 68.9531C1.55209 68.8559 1.64911 68.7588 1.84315 68.6617L8.05242 65.651L1.26102 64.1943C0.872944 64.0972 0.678905 63.9029 0.678905 63.6116C0.678905 63.4173 0.678904 63.3202 0.775924 63.2231C0.872944 63.126 0.969965 63.0289 1.164 62.9317L7.4703 59.9211L0.581886 58.4643C0.387847 58.4643 0.290825 58.3672 0.193806 58.2701C0.0967855 58.173 -0.000231743 58.0759 -0.000231743 57.8816C-0.000231743 57.6874 -0.000234604 57.4931 0.193806 57.396C0.290825 57.2989 0.484863 57.2018 0.775924 57.2989L8.82858 59.047C9.02262 59.1442 9.21666 59.1442 9.31368 59.2413C9.4107 59.3384 9.50772 59.4355 9.50772 59.6297C9.50772 59.824 9.50772 60.0182 9.4107 60.1153C9.31368 60.2124 9.21666 60.3096 9.02262 60.4067L2.91037 63.4173L9.60474 64.8741C9.79878 64.8741 9.99282 64.9712 10.0898 65.0683C9.99282 65.2626 9.99282 65.3597 10.0898 65.5539Z" fill="#030211"/>
<path d="M9.60466 50.8891C9.50764 51.2775 9.31359 51.4718 8.82849 51.3747L1.16392 49.9179C0.969878 49.9179 0.775838 49.8208 0.678818 49.6265C0.581799 49.5294 0.5818 49.3352 0.5818 49.141C0.5818 48.9467 0.678817 48.8496 0.775837 48.8496C0.872856 48.8496 0.969878 48.7525 1.16392 48.6554L8.44041 45.062L2.32816 43.8966C1.94008 43.7995 1.74604 43.6052 1.84306 43.2168C1.94008 42.8283 2.13412 42.6341 2.5222 42.7312L10.1868 44.1879C10.3808 44.1879 10.4778 44.2851 10.5749 44.3822C10.6719 44.4793 10.6719 44.6735 10.6719 44.7707C10.6719 44.9649 10.5749 45.062 10.4778 45.1591C10.3808 45.2562 10.2838 45.3534 10.0898 45.3534L2.81326 48.9467L8.92551 50.1121C9.50763 50.3064 9.70168 50.5006 9.60466 50.8891Z" fill="#030211"/>
<path d="M26.0971 20.6858C25.612 21.0743 25.224 21.3656 24.7389 21.657C24.2538 21.9483 23.7687 22.0455 23.2836 22.1426C23.0895 22.1426 22.8955 22.1426 22.7985 22.0455C22.7014 21.9483 22.6044 21.8512 22.5074 21.657C22.5074 21.5599 22.5074 21.3656 22.5074 21.2685C22.5074 21.1714 22.7014 21.0743 22.8955 21.0743C23.3806 20.9772 23.7687 20.88 24.1567 20.6858C24.5448 20.4916 24.9329 20.2002 25.321 19.9089C25.9031 19.4233 26.1942 19.0348 26.2912 18.5492C26.3882 18.1608 26.2912 17.7723 26.0001 17.4809C25.8061 17.1896 25.515 17.0925 25.224 17.0925C24.9329 17.0925 24.5448 17.2867 23.9627 17.578L22.7985 18.2579C22.1193 18.6463 21.4402 18.8406 20.8581 18.7435C20.2759 18.7435 19.7908 18.4521 19.4028 17.9665C19.0147 17.578 18.8206 17.0925 18.8206 16.6069C18.7236 16.1213 18.8206 15.6357 19.1117 15.1501C19.3057 14.6645 19.6938 14.1789 20.1789 13.7904C20.567 13.402 20.9551 13.2077 21.4402 13.0135C21.8283 12.8193 22.3134 12.7222 22.7985 12.7222C22.9925 12.7222 23.0895 12.7222 23.1865 12.8193C23.2836 12.9164 23.3806 13.0135 23.3806 13.2077C23.3806 13.402 23.3806 13.4991 23.2836 13.5962C23.1865 13.6933 23.0895 13.7904 22.8955 13.7904C22.5074 13.7904 22.1193 13.9847 21.8283 14.0818C21.5372 14.276 21.1491 14.4703 20.8581 14.6645C20.373 15.053 20.0819 15.5386 19.9849 15.927C19.8879 16.4126 19.9849 16.8011 20.2759 17.0925C20.47 17.3838 20.761 17.4809 21.0521 17.4809C21.3432 17.4809 21.7312 17.3838 22.2163 17.0925L23.3806 16.4126C24.1567 16.0242 24.7389 15.8299 25.321 15.8299C25.9031 15.8299 26.3882 16.1213 26.7763 16.5097C27.1644 16.8982 27.2614 17.3838 27.3584 17.7723C27.3584 18.2579 27.2614 18.7435 27.0673 19.229C26.9703 19.7146 26.5822 20.2002 26.0971 20.6858Z" fill="#030211"/>
<path d="M36.1878 14.0814C35.4117 14.4698 34.6355 14.6641 33.8594 14.6641C33.0832 14.6641 32.404 14.3727 31.8219 13.8871C31.2398 13.4015 30.6577 12.8188 30.2696 11.9448C29.8815 11.0707 29.5905 10.2938 29.5905 9.51681C29.5905 8.73987 29.7845 8.06005 30.1726 7.47734C30.5607 6.89464 31.1428 6.31193 32.016 5.92346C32.5011 5.72922 32.8892 5.53499 33.3743 5.43787C33.8594 5.34075 34.2474 5.34075 34.7325 5.43787C34.9266 5.43787 35.1206 5.53498 35.2176 5.6321C35.3146 5.72922 35.3146 5.92346 35.3146 6.02057C35.3146 6.21481 35.2176 6.31193 35.1206 6.40905C35.0236 6.50617 34.8295 6.50616 34.6355 6.50616C34.2474 6.40905 33.9564 6.40905 33.5683 6.50616C33.1802 6.60328 32.8891 6.7004 32.5981 6.89464C31.7249 7.28311 31.2398 7.96294 31.0458 8.64276C30.8517 9.32259 31.0458 10.2938 31.5309 11.2649C32.016 12.2361 32.5981 12.8188 33.3743 13.2073C34.0534 13.4986 34.9266 13.4015 35.7027 13.0131C35.9938 12.8188 36.2848 12.6246 36.5759 12.4303C36.867 12.139 37.061 11.9448 37.255 11.5563C37.3521 11.3621 37.4491 11.2649 37.6431 11.2649C37.7401 11.2649 37.9342 11.2649 38.0312 11.3621C38.1282 11.4592 38.2252 11.5563 38.3223 11.7505C38.3223 11.9448 38.3223 12.0419 38.2252 12.2361C38.0312 12.6246 37.7401 13.0131 37.4491 13.4015C36.964 13.4986 36.5759 13.79 36.1878 14.0814Z" fill="#030211"/>
<path d="M43.9493 10.9743C43.5613 11.0714 43.2702 10.8772 43.1732 10.4887L41.5238 3.01062C41.4268 2.62215 41.6209 2.33079 42.0089 2.23367L44.9195 1.55385C45.8897 1.35961 46.6659 1.35961 47.248 1.74808C47.8301 2.03944 48.2182 2.62215 48.4123 3.49621C48.6063 4.17603 48.5093 4.75874 48.2182 5.24433C47.9272 5.72992 47.5391 6.11839 46.957 6.40974C47.345 6.40974 47.8301 6.70109 48.1212 7.08956L49.5765 8.83769C49.7705 9.03192 49.8676 9.22616 49.7705 9.42039C49.6735 9.61463 49.5765 9.71175 49.2854 9.80886C49.0914 9.80886 48.9944 9.80886 48.8003 9.80886C48.7033 9.80886 48.5093 9.71174 48.4123 9.51751L46.5689 7.38092C46.2778 7.08957 46.0838 6.89533 45.7927 6.89533C45.5017 6.79821 45.2106 6.79821 44.9195 6.89533L43.5613 7.18669L44.2404 10.1973C44.5315 10.5858 44.3374 10.8772 43.9493 10.9743ZM43.5613 6.21551L45.6957 5.72992C46.957 5.43856 47.4421 4.75873 47.248 3.69044C47.054 2.62214 46.2778 2.33079 45.0166 2.52503L42.8821 3.01062L43.5613 6.21551Z" fill="#030211"/>
<path d="M58.6965 9.22572C57.8233 9.22572 57.1441 9.03148 56.465 8.54589C55.8829 8.15742 55.3978 7.57472 55.1067 6.89489C54.8157 6.21507 54.6216 5.34101 54.7186 4.46695C54.7186 3.49577 54.9127 2.71882 55.3008 2.039C55.6888 1.35918 56.1739 0.873588 56.7561 0.485116C57.4352 0.0966444 58.1143 -0.000473022 58.9875 -0.000473022C59.8607 -0.000473022 60.5398 0.193761 61.122 0.582232C61.7041 0.970703 62.1892 1.55341 62.4802 2.23323C62.7713 2.91306 62.9653 3.69 62.8683 4.66118C62.8683 5.63236 62.6743 6.4093 62.2862 7.08912C61.8981 7.76895 61.413 8.25454 60.8309 8.64301C60.2488 9.1286 59.4726 9.32284 58.6965 9.22572ZM58.6965 8.15743C59.5696 8.15743 60.2488 7.86607 60.8309 7.28336C61.316 6.70066 61.6071 5.8266 61.6071 4.7583C61.6071 3.69001 61.413 2.81594 60.9279 2.23323C60.4428 1.65053 59.7637 1.26205 58.8905 1.26205C58.0173 1.26205 57.3382 1.55341 56.7561 2.13612C56.271 2.71882 55.9799 3.59288 55.9799 4.66118C55.9799 5.72947 56.1739 6.60354 56.659 7.18625C57.1441 7.76895 57.8233 8.06031 58.6965 8.15743Z" fill="#030211"/>
<path d="M68.3985 10.488C68.0104 10.3909 67.8164 10.0996 67.9134 9.61398L69.9508 2.33014C70.0478 1.94167 70.3389 1.74743 70.727 1.84455C71.115 1.94167 71.3091 2.23302 71.2121 2.62149L69.2717 9.51685L73.0554 10.5852C73.4435 10.6823 73.5405 10.8765 73.4435 11.265C73.3465 11.6534 73.0554 11.7506 72.7644 11.6534L68.3985 10.488Z" fill="#030211"/>
<path d="M78.0033 13.8874C77.6152 13.6931 77.5182 13.4018 77.7122 13.0133L81.302 6.31217C81.496 5.9237 81.7871 5.82657 82.1752 6.02081C82.5632 6.21505 82.6603 6.5064 82.4662 6.89487L79.0705 13.2075L82.5632 15.0528C82.9513 15.247 82.9513 15.4412 82.8543 15.8297C82.6603 16.1211 82.3692 16.2182 82.0781 16.0239L78.0033 13.8874Z" fill="#030211"/>
<path d="M91.6833 23.8905C91.3922 23.502 91.3922 23.2107 91.7803 22.9193L97.5045 18.0634C97.8926 17.7721 98.1836 17.7721 98.4747 18.1605L100.027 20.0058C100.997 21.1712 101.385 22.2395 101.288 23.3078C101.191 24.3761 100.609 25.4444 99.5419 26.3184C98.4747 27.1925 97.3105 27.6781 96.2432 27.4839C95.176 27.3867 94.1088 26.7069 93.1386 25.6386L91.6833 23.8905ZM92.9446 23.6963L94.1088 25.0559C95.5641 26.7069 97.1164 26.9011 98.7658 25.4444C100.512 23.9876 100.609 22.4337 99.2509 20.7827L98.0866 19.4231L92.9446 23.6963Z" fill="#030211"/>
<path d="M100.318 37.0017C99.9301 36.2248 99.8331 35.4479 99.9301 34.768C100.027 34.0882 100.318 33.4084 100.803 32.8257C101.288 32.243 101.968 31.7574 102.744 31.3689C103.617 30.9804 104.393 30.7862 105.169 30.7862C105.945 30.7862 106.624 31.0776 107.207 31.466C107.789 31.8545 108.274 32.4372 108.662 33.2141C109.05 33.9911 109.147 34.768 109.05 35.4479C108.953 36.1277 108.662 36.8075 108.177 37.3902C107.692 37.9729 107.013 38.4585 106.236 38.847C105.363 39.2355 104.587 39.4297 103.811 39.4297C103.035 39.4297 102.356 39.2355 101.773 38.7499C101.191 38.3614 100.706 37.7787 100.318 37.0017ZM101.385 36.5162C101.773 37.2931 102.356 37.7787 103.035 37.9729C103.811 38.1672 104.684 38.07 105.654 37.5844C106.624 37.0989 107.304 36.5162 107.595 35.8363C107.886 35.1565 107.886 34.3796 107.498 33.6026C107.11 32.8257 106.527 32.3401 105.848 32.1459C105.072 31.9516 104.199 32.0487 103.229 32.5343C102.259 33.0199 101.579 33.6026 101.191 34.2824C100.997 34.9623 100.997 35.7392 101.385 36.5162Z" fill="#030211"/>
<path d="M104.005 48.1706C104.005 47.7821 104.102 47.5879 104.49 47.3936L111.863 43.8003C112.057 43.7032 112.251 43.7032 112.445 43.8003C112.639 43.8974 112.736 44.0916 112.736 44.2859C112.736 44.4801 112.736 44.5772 112.639 44.7715C112.542 44.8686 112.445 44.9657 112.251 45.0628L106.042 48.0735L112.833 49.5302C113.222 49.6273 113.416 49.8216 113.513 50.1129C113.513 50.3072 113.513 50.4043 113.416 50.5014C113.319 50.5985 113.222 50.6956 113.028 50.7928L106.721 53.8034L113.61 55.2602C113.804 55.2602 113.901 55.3573 113.998 55.4544C113.998 55.5515 114.095 55.6487 114.095 55.8429C114.095 56.0371 114.095 56.2314 113.901 56.3285C113.804 56.4256 113.61 56.5227 113.319 56.4256L105.363 54.6775C105.169 54.5804 104.975 54.5804 104.878 54.4832C104.781 54.3861 104.684 54.289 104.684 54.0948C104.684 53.9005 104.684 53.7063 104.781 53.6092C104.878 53.5121 104.975 53.4149 105.169 53.3178L111.281 50.3072L104.587 48.8504C104.393 48.8504 104.199 48.7533 104.102 48.6562C104.102 48.4619 104.005 48.3648 104.005 48.1706Z" fill="#030211"/>
<path d="M104.49 62.8353C104.587 62.4468 104.781 62.2526 105.266 62.3497L112.931 63.8064C113.125 63.8064 113.319 63.9036 113.416 64.0978C113.513 64.1949 113.513 64.3892 113.513 64.5834C113.513 64.7776 113.416 64.8747 113.319 64.8747C113.222 64.9719 113.125 64.9719 112.931 65.069L105.751 68.6623L111.863 69.8277C112.251 69.9249 112.445 70.1191 112.348 70.5076C112.154 70.896 111.96 70.9932 111.572 70.9932L103.908 69.5364C103.714 69.5364 103.617 69.4393 103.52 69.3422C103.423 69.245 103.423 69.0508 103.423 68.9537C103.423 68.7595 103.52 68.6623 103.617 68.5652C103.714 68.4681 103.811 68.371 104.005 68.371L111.281 64.7776L105.169 63.6122C104.587 63.418 104.393 63.2237 104.49 62.8353Z" fill="#030211"/>
</svg>
