<svg width="31" height="30" viewBox="0 0 31 30" fill="none" xmlns="http://www.w3.org/2000/svg">
<path d="M19.875 13.75C20.3723 13.75 20.8492 13.5525 21.2008 13.2008C21.5525 12.8492 21.75 12.3723 21.75 11.875C21.75 11.3777 21.5525 10.9008 21.2008 10.5492C20.8492 10.1975 20.3723 10 19.875 10C19.3777 10 18.9008 10.1975 18.5492 10.5492C18.1975 10.9008 18 11.3777 18 11.875C18 12.3723 18.1975 12.8492 18.5492 13.2008C18.9008 13.5525 19.3777 13.75 19.875 13.75ZM13 11.875C13 12.3723 12.8025 12.8492 12.4508 13.2008C12.0992 13.5525 11.6223 13.75 11.125 13.75C10.6277 13.75 10.1508 13.5525 9.79917 13.2008C9.44754 12.8492 9.25 12.3723 9.25 11.875C9.25 11.3777 9.44754 10.9008 9.79917 10.5492C10.1508 10.1975 10.6277 10 11.125 10C11.6223 10 12.0992 10.1975 12.4508 10.5492C12.8025 10.9008 13 11.3777 13 11.875ZM8.41 18.9125C8.6149 18.773 8.86669 18.7204 9.11031 18.766C9.35393 18.8117 9.56955 18.952 9.71 19.1562L9.72125 19.1712L9.77625 19.245C9.82875 19.3125 9.91375 19.415 10.03 19.5425C10.2637 19.7963 10.62 20.1425 11.1025 20.4888C12.0625 21.18 13.515 21.875 15.5 21.875C17.485 21.875 18.9375 21.18 19.8975 20.4888C20.38 20.1425 20.7375 19.7963 20.97 19.5425C21.0793 19.4238 21.1827 19.2999 21.28 19.1712L21.2887 19.1587C21.4288 18.9532 21.6448 18.8117 21.8892 18.7654C22.1336 18.7191 22.3863 18.7718 22.5919 18.9119C22.7974 19.0519 22.9389 19.2679 22.9852 19.5123C23.0315 19.7567 22.9788 20.0095 22.8388 20.215L22.8363 20.2163V20.2188L22.8325 20.2225L22.8237 20.235L22.7962 20.2738L22.7013 20.3988C22.5896 20.54 22.4728 20.6772 22.3513 20.81C21.9411 21.256 21.4857 21.6581 20.9925 22.01C19.78 22.8837 17.9525 23.75 15.5 23.75C13.0475 23.75 11.22 22.8825 10.0075 22.0112C9.5137 21.6587 9.05791 21.2557 8.6475 20.8088C8.4815 20.6258 8.32464 20.4347 8.1775 20.2362L8.1675 20.2238L8.165 20.2188L8.16375 20.2163L8.1625 20.215C8.0226 20.0095 7.97008 19.7568 8.0165 19.5125C8.06291 19.2682 8.20446 19.0524 8.41 18.9125ZM15.5 0C7.21625 0 0.5 6.71625 0.5 15C0.5 23.2838 7.21625 30 15.5 30C23.7838 30 30.5 23.2838 30.5 15C30.5 6.71625 23.7838 0 15.5 0ZM2.375 15C2.375 7.75125 8.25125 1.875 15.5 1.875C22.7487 1.875 28.625 7.75125 28.625 15C28.625 22.2487 22.7487 28.125 15.5 28.125C8.25125 28.125 2.375 22.2487 2.375 15Z" fill="white"/>
</svg>
