<svg width="48" height="49" viewBox="0 0 48 49" fill="none" xmlns="http://www.w3.org/2000/svg">
<path d="M24 44.5C35.0457 44.5 44 35.5457 44 24.5C44 13.4543 35.0457 4.5 24 4.5C12.9543 4.5 4 13.4543 4 24.5C4 35.5457 12.9543 44.5 24 44.5Z" stroke="#030211" stroke-opacity="0.7" stroke-width="3"/>
<path d="M5 25.5H44" stroke="#030211" stroke-opacity="0.7" stroke-width="3" stroke-linecap="round"/>
<path d="M19 19.5C21.2091 19.5 23 17.7091 23 15.5C23 13.2909 21.2091 11.5 19 11.5C16.7909 11.5 15 13.2909 15 15.5C15 17.7091 16.7909 19.5 19 19.5Z" stroke="#030211" stroke-opacity="0.7" stroke-width="3"/>
<path d="M31 31.5H43M34 17.5H42M25 37.5H39" stroke="#030211" stroke-opacity="0.7" stroke-width="3" stroke-linecap="round"/>
<path d="M40 12.498C42.6034 15.9571 44.0077 20.1708 44 24.5C44 32.308 39.525 39.072 33 42.365M4.4 20.5C4.138 21.792 4 23.13 4 24.5C4 26.227 4.219 27.902 4.63 29.5" stroke="#030211" stroke-opacity="0.7" stroke-width="3"/>
</svg>
